<svg width="50" height="66" viewBox="0 0 50 66" fill="none" xmlns="http://www.w3.org/2000/svg">
<g clip-path="url(#clip0_14_4)">
<path d="M29.1667 0H0V66H50V20.625H29.1667V0ZM33.3333 0V16.5H50L33.3333 0ZM12.5 28.875C13.6051 28.875 14.6649 29.3096 15.4463 30.0832C16.2277 30.8568 16.6667 31.906 16.6667 33C16.6667 34.094 16.2277 35.1432 15.4463 35.9168C14.6649 36.6904 13.6051 37.125 12.5 37.125C11.3949 37.125 10.3351 36.6904 9.55372 35.9168C8.77232 35.1432 8.33333 34.094 8.33333 33C8.33333 31.906 8.77232 30.8568 9.55372 30.0832C10.3351 29.3096 11.3949 28.875 12.5 28.875ZM41.6667 57.75H25H16.6667H8.33333V53.625L16.6667 42.2812L20.8984 48.0434L29.1667 37.125L41.6667 53.625V57.75Z" fill="#FF2247"/>
</g>
<defs>
<clipPath id="clip0_14_4">
<rect width="50" height="66" fill="white"/>
</clipPath>
</defs>
</svg>
