<svg width="253" height="36" viewBox="0 0 253 36" fill="none" xmlns="http://www.w3.org/2000/svg">
<path d="M143.874 26.8745V33.8166C143.874 34.2645 144.154 34.4884 144.714 34.4884C145.275 34.4884 145.555 34.2645 145.555 33.8166V31.0174H148.804V33.8166C148.804 34.2645 149.084 34.4884 149.645 34.4884C150.205 34.4884 150.485 34.2645 150.485 33.8166V26.8745C150.485 26.4266 150.205 26.2027 149.645 26.2027C149.084 26.2027 148.804 26.4266 148.804 26.8745V29.5058H145.555V26.8745C145.555 26.4266 145.275 26.2027 144.714 26.2027C144.154 26.2027 143.874 26.4266 143.874 26.8745ZM131.1 27.0984V33.5367C131.1 34.1525 131.38 34.3764 131.941 34.3764H135.582C136.03 34.3764 136.254 34.1525 136.254 33.6486C136.254 33.1448 136.03 32.9208 135.582 32.9208H132.725V30.9614H135.022C135.47 30.9614 135.694 30.7374 135.694 30.2336C135.694 29.7297 135.47 29.5058 135.022 29.5058H132.725V27.7702H135.526C135.974 27.7702 136.198 27.5463 136.198 27.0424C136.198 26.5386 135.974 26.3146 135.526 26.3146H131.941C131.324 26.2586 131.1 26.5386 131.1 27.0984ZM121.016 26.8745V31.2973C121.016 31.9131 121.128 32.473 121.296 32.9208C121.8 34.0405 122.808 34.5444 124.265 34.5444C125.61 34.5444 126.73 34.0965 127.234 32.9208C127.458 32.473 127.514 31.9131 127.514 31.2973V26.8745C127.514 26.4266 127.234 26.2027 126.674 26.2027C126.114 26.2027 125.89 26.4266 125.89 26.8745V31.2973C125.89 31.6332 125.834 31.9131 125.778 32.193C125.554 32.7529 125.161 33.0888 124.321 33.0888C123.593 33.0888 123.144 32.8089 122.864 32.193C122.752 31.9691 122.752 31.6332 122.752 31.2973V26.8745C122.752 26.4266 122.472 26.2027 121.912 26.2027C121.296 26.2027 121.016 26.4266 121.016 26.8745ZM104.712 26.8745V33.8166C104.712 34.2645 104.992 34.4884 105.552 34.4884C106.113 34.4884 106.393 34.2645 106.393 33.8166V26.8745C106.393 26.4266 106.113 26.2027 105.552 26.2027C104.992 26.2027 104.712 26.4266 104.712 26.8745ZM76.0829 30.3455C76.0829 28.61 76.9793 27.6023 78.3239 27.6023C79.6685 27.6023 80.5649 28.61 80.5649 30.3455C80.5649 32.0811 79.6685 33.0888 78.3239 33.0888C76.9793 33.0888 76.0829 32.0811 76.0829 30.3455ZM74.2901 30.3455C74.2901 32.9768 75.8588 34.6004 78.3239 34.6004C80.7891 34.6004 82.3578 32.9768 82.3578 30.3455C82.3578 27.7142 80.7891 26.0907 78.3239 26.0907C75.9148 26.0907 74.2901 27.7142 74.2901 30.3455ZM14.0064 8.00758C14.0064 8.2875 14.0064 8.56742 13.9504 9.0153C13.8944 9.4072 13.8383 9.85508 13.6703 10.303C13.5022 10.7508 13.2781 11.2547 12.9419 11.7586C12.6618 12.1505 12.3257 12.5983 11.8214 12.9902L9.97257 11.0867L8.01167 12.3744L9.63642 14.0539C9.52437 14.0539 9.41232 14.1099 9.24424 14.1099C8.17975 14.2219 7.11526 14.1659 6.16283 13.774C5.54654 13.4941 4.98629 13.1022 4.48206 12.5423C3.97782 11.9825 3.58564 11.3667 3.30552 10.5829C3.02539 9.79909 2.85731 8.90333 2.85731 7.95159C2.85731 6.99985 3.02539 6.16008 3.30552 5.43227C3.58564 4.64848 3.97782 4.03265 4.48206 3.4728C4.98629 2.91295 5.54654 2.52106 6.21885 2.24114C6.89116 1.96121 7.61949 1.79326 8.34783 1.79326C9.13219 1.79326 9.86052 1.96121 10.5328 2.24114C11.2051 2.52106 11.8214 2.96894 12.3257 3.4728C12.8299 3.97667 13.2221 4.64848 13.5022 5.43227C13.8944 6.21606 14.0064 7.05583 14.0064 8.00758ZM16.6957 9.74311C16.8637 9.12727 16.9198 8.51144 16.9198 7.95159C16.9198 7.11182 16.7517 6.21606 16.4155 5.3203C16.0794 4.36856 15.5751 3.52879 14.9028 2.745C14.2305 1.96121 13.3341 1.28939 12.2696 0.785529C11.2051 0.337651 9.91655 0.0577264 8.40385 0.0577264C6.94719 0.0577264 5.6586 0.337651 4.59411 0.841514C3.52962 1.34538 2.68923 1.96121 1.9609 2.745C1.23257 3.52879 0.78436 4.42454 0.504231 5.3203C0.168077 6.27204 0 7.1678 0 8.00758C0 9.07129 0.224103 10.135 0.616283 11.0867C1.00846 12.0385 1.62475 12.8783 2.35308 13.6061C3.08141 14.3339 3.97782 14.8937 4.98629 15.3416C6.44295 15.9014 8.12373 16.1254 9.8045 15.9014C10.1967 15.8455 10.5889 15.7895 10.981 15.6215L12.9419 17.637L15.351 16.7972L13.2781 14.6138C13.7823 14.2779 14.2866 13.83 14.6787 13.3821C15.183 12.8223 15.5751 12.2624 15.9113 11.6466C16.3595 10.9748 16.5836 10.3589 16.6957 9.74311ZM33.6154 12.4304C33.8395 11.7586 34.0076 10.9748 34.0076 10.191V0.281666H32.2708V9.51917C32.2708 9.79909 32.2708 10.135 32.2708 10.4149C32.2708 10.6948 32.2148 10.9748 32.1587 11.2547C32.1027 11.5346 31.9907 11.8145 31.8786 12.0945C31.7666 12.3744 31.5425 12.6543 31.3184 12.9342C30.8702 13.4381 30.3659 13.774 29.8057 13.942C28.7412 14.2779 27.4526 14.3339 26.5562 13.998C26.164 13.83 25.7718 13.6061 25.3796 13.2702C25.0995 13.0462 24.8754 12.7663 24.7073 12.5423C24.5393 12.3184 24.4272 12.0385 24.3712 11.8145C24.3152 11.5906 24.2591 11.3667 24.2591 11.0867C24.2591 10.8068 24.2591 10.5269 24.2591 10.247V0.281666H21.5139V9.63114C21.5139 10.191 21.5699 10.8628 21.6819 11.5906C21.794 12.3184 22.0741 13.0462 22.5223 13.662C22.9705 14.3339 23.6428 14.8377 24.5393 15.2856C25.4357 15.7335 26.6122 15.9014 28.0689 15.9014C29.0213 15.9014 29.8617 15.7335 30.59 15.4536C31.3184 15.1736 31.9346 14.7258 32.4389 14.2219C32.9991 13.718 33.3913 13.1022 33.6154 12.4304ZM39.1059 15.6775H49.3586V13.718H41.7952V8.45545H48.2381V6.66394H41.7952V2.29712H49.3026V0.281666H39.1059V15.6775ZM55.1293 15.6775H65.382V13.718H57.8745V8.45545H64.3175V6.66394H57.8745V2.29712H65.382V0.281666H55.1293V15.6775ZM69.5839 31.9691C69.5839 32.6409 69.1357 33.0888 67.9031 33.0888C67.679 33.0888 67.3989 33.0888 67.1748 33.0328V30.8494H67.9592C68.2953 30.8494 68.6315 30.9054 68.8556 30.9614C69.3598 31.1293 69.5839 31.5212 69.5839 31.9691ZM69.3598 28.554C69.3598 29.0019 69.1357 29.2818 68.6875 29.4498C68.5194 29.5058 68.2393 29.5617 67.9592 29.5617H67.2308V27.6023C67.4549 27.5463 67.679 27.5463 67.9031 27.5463C68.9116 27.6023 69.3598 27.9942 69.3598 28.554ZM71.0966 28.3301C71.0966 26.9864 69.9761 26.1467 67.9031 26.1467C67.3429 26.1467 66.6706 26.2027 66.3344 26.3146C65.6061 26.5386 65.6061 26.9864 65.6061 27.4343V33.2008C65.6061 33.6486 65.6061 34.0965 66.3344 34.3205C66.7266 34.4324 67.3989 34.4884 67.9031 34.4884C70.1442 34.4884 71.3767 33.5367 71.3767 32.137C71.3767 31.1293 70.7605 30.4015 69.5279 30.1776C70.5363 29.8977 71.0966 29.2818 71.0966 28.3301ZM83.2542 15.9574H83.9265V0.281666H82.1337V10.9188L71.1526 0.0577264H70.4803V15.6775H72.2731V5.04038L83.2542 15.9574ZM88.9128 33.0888C88.1844 33.0888 87.7362 32.8089 87.4561 32.193C87.3441 31.9691 87.3441 31.6332 87.3441 31.2973V26.8745C87.3441 26.4266 87.0639 26.2027 86.5037 26.2027C85.9434 26.2027 85.6633 26.4266 85.6633 26.8745V31.2973C85.6633 31.9131 85.7753 32.473 85.9434 32.9208C86.4476 34.0405 87.4561 34.5444 88.9128 34.5444C90.2574 34.5444 91.3779 34.0965 91.8821 32.9208C92.1062 32.473 92.1623 31.9131 92.1623 31.2973V26.8745C92.1623 26.4266 91.8821 26.2027 91.3219 26.2027C90.7616 26.2027 90.5375 26.4266 90.5375 26.8745V31.2973C90.5375 31.6332 90.4815 31.9131 90.4255 32.193C90.0893 32.7529 89.6971 33.0888 88.9128 33.0888ZM92.2183 4.92841C91.8821 4.64848 91.7141 4.31258 91.7141 3.80871C91.7141 3.52879 91.7701 3.30485 91.8821 3.08091C91.9942 2.85697 92.1623 2.63303 92.3864 2.46508C92.6105 2.29712 92.9466 2.12917 93.3388 2.0172C93.731 1.90523 94.1792 1.84924 94.6274 1.84924C95.4678 1.84924 96.1401 2.0172 96.7004 2.35311C97.2046 2.68901 97.5407 3.13689 97.5968 3.8647L97.6528 4.20061H99.8938L99.8378 3.69674C99.7257 3.13689 99.5577 2.57704 99.2215 2.12917C98.8854 1.68129 98.4932 1.28939 97.9889 0.953484C97.4847 0.67356 96.9805 0.393636 96.3642 0.225681C95.1316 -0.110228 93.731 -0.0542433 92.5545 0.281666C91.9382 0.44962 91.3779 0.729545 90.9297 1.06545C90.4255 1.40136 90.0333 1.84924 89.7532 2.40909C89.473 2.96894 89.305 3.58477 89.305 4.25659C89.305 5.15235 89.5291 5.93614 90.0333 6.49598C90.4815 7.05583 91.0418 7.50371 91.7141 7.83962C92.3864 8.17553 93.0587 8.45545 93.843 8.73538C94.5714 8.95932 95.2437 9.23924 95.86 9.51917C96.4202 9.79909 96.9245 10.135 97.3166 10.5269C97.6528 10.8628 97.8209 11.3667 97.8209 11.9825C97.8209 12.7663 97.5407 13.2702 97.0365 13.6061C96.4202 13.998 95.6359 14.1659 94.6274 14.1659C93.787 14.1659 93.1707 14.0539 92.6665 13.83C92.2183 13.6061 91.8261 13.3821 91.602 13.1022C91.3779 12.8223 91.2098 12.5423 91.1538 12.2624C91.0418 11.9265 91.0418 11.7026 90.9857 11.4786V11.0867H88.7447V11.5346C88.8007 12.2064 88.9688 12.8223 89.2489 13.3261C89.5851 13.886 89.9773 14.3339 90.5375 14.6698C91.0418 15.0057 91.7141 15.3416 92.3864 15.5095C93.1147 15.6775 93.843 15.7895 94.6834 15.7895C95.5238 15.7895 96.3082 15.6775 96.9805 15.4536C97.6528 15.2296 98.2691 14.9497 98.7733 14.5578C99.2775 14.1659 99.6697 13.662 99.9498 13.1022C100.23 12.5423 100.342 11.9265 100.342 11.1987C100.342 10.247 100.118 9.46318 99.6137 8.84735C99.1655 8.2875 98.5492 7.78364 97.8769 7.39174C97.2046 6.99985 96.4762 6.66394 95.6919 6.44C94.9636 6.21606 94.2352 5.93614 93.6189 5.65621C93.1707 5.54424 92.6105 5.26432 92.2183 4.92841ZM101.687 26.9864C101.687 26.4826 101.463 26.2586 101.014 26.2586H95.8039C95.3557 26.2586 95.1316 26.5386 95.1316 27.0424C95.1316 27.5463 95.3557 27.7702 95.8039 27.7702H97.5407V33.8166C97.5407 34.2645 97.8209 34.4884 98.3811 34.4884C98.9414 34.4884 99.2215 34.2645 99.2215 33.8166V27.7702H100.958C101.463 27.7702 101.687 27.4903 101.687 26.9864ZM111.827 2.29712H117.43V0.281666H103.535V2.29712H109.138V15.7335H111.883V2.29712H111.827ZM115.973 30.3455C115.973 32.0811 115.077 33.0888 113.732 33.0888C112.388 33.0888 111.491 32.0811 111.491 30.3455C111.491 28.61 112.388 27.6023 113.732 27.6023C115.077 27.6023 115.973 28.61 115.973 30.3455ZM117.766 30.3455C117.766 27.7142 116.197 26.0907 113.732 26.0907C111.323 26.0907 109.698 27.7142 109.698 30.3455C109.698 32.9768 111.267 34.6004 113.732 34.6004C114.012 34.6004 114.236 34.6004 114.46 34.5444L115.133 35.3842C115.469 35.7761 115.637 36 116.365 36C116.982 36 117.206 35.8321 117.206 35.5521C117.206 35.3282 117.038 35.0483 116.702 34.7124L115.973 33.9286C117.094 33.2567 117.766 31.9691 117.766 30.3455ZM133.509 8.00758C133.509 8.90333 133.341 9.74311 133.061 10.5269C132.781 11.3107 132.333 11.9265 131.828 12.4864C131.324 13.0462 130.708 13.4381 130.036 13.774C128.691 14.3898 127.01 14.3898 125.722 13.774C125.049 13.4941 124.489 13.0462 124.041 12.4864C123.537 11.9265 123.144 11.3107 122.864 10.5269C122.584 9.74311 122.416 8.90333 122.416 8.00758C122.416 7.11182 122.584 6.21606 122.864 5.48826C123.144 4.70447 123.537 4.08864 124.041 3.52879C124.545 2.96894 125.105 2.57704 125.722 2.24114C126.394 1.96121 127.066 1.79326 127.851 1.79326C128.579 1.79326 129.307 1.96121 129.98 2.24114C130.652 2.52106 131.268 2.96894 131.772 3.52879C132.277 4.08864 132.669 4.70447 133.005 5.48826C133.341 6.21606 133.509 7.11182 133.509 8.00758ZM136.142 9.74311C136.311 9.12727 136.367 8.56742 136.367 8.00758C136.367 7.1678 136.198 6.32803 135.862 5.37629C135.526 4.42454 135.022 3.58477 134.294 2.80098C133.565 2.0172 132.725 1.34538 131.66 0.841514C130.596 0.337651 129.307 0.0577264 127.851 0.0577264C126.45 0.0577264 125.161 0.337651 124.153 0.841514C123.144 1.34538 122.248 2.0172 121.576 2.80098C120.903 3.58477 120.399 4.42454 120.119 5.37629C119.783 6.32803 119.671 7.1678 119.671 8.00758C119.671 8.84735 119.839 9.68712 120.119 10.6389C120.455 11.5906 120.959 12.4304 121.576 13.2142C122.248 13.998 123.088 14.6698 124.153 15.1736C125.217 15.6775 126.45 15.9574 127.851 15.9574C128.803 15.9574 129.699 15.8455 130.484 15.6215C131.268 15.3976 131.997 15.0617 132.613 14.6698C133.229 14.2779 133.789 13.774 134.294 13.2702C134.742 12.7663 135.134 12.1505 135.47 11.5906C135.75 10.9188 135.974 10.303 136.142 9.74311ZM155.359 15.6775L160.794 0.281666H158.945L154.911 11.7026L151.101 0.281666H149.589L145.667 11.6466L141.633 0.281666H138.832L144.266 15.6775H146.115L149.869 4.98439L153.454 15.6775H155.359ZM160.065 30.3455C160.065 32.0811 159.169 33.0888 157.824 33.0888C156.48 33.0888 155.583 32.0811 155.583 30.3455C155.583 28.61 156.48 27.6023 157.824 27.6023C159.113 27.6023 160.065 28.61 160.065 30.3455ZM161.802 30.3455C161.802 27.7142 160.233 26.0907 157.768 26.0907C155.359 26.0907 153.735 27.7142 153.735 30.3455C153.735 32.9768 155.303 34.6004 157.768 34.6004C160.233 34.6004 161.802 32.9208 161.802 30.3455ZM165.22 26.2586C164.772 26.2586 164.547 26.5386 164.547 27.0424C164.547 27.5463 164.772 27.7702 165.22 27.7702H166.957V33.8166C166.957 34.2645 167.237 34.4884 167.797 34.4884C168.357 34.4884 168.637 34.2645 168.637 33.8166V27.7702H170.374C170.822 27.7702 171.046 27.4903 171.046 26.9864C171.046 26.4826 170.822 26.2586 170.374 26.2586H165.22ZM177.826 15.9574H178.498V0.281666H176.705V10.9188L165.78 0.169696L165.556 0.0577264H164.996V15.6775H166.788V5.04038L177.714 15.7895L177.826 15.9574ZM175.753 32.9208V30.9614H178.05C178.498 30.9614 178.722 30.7374 178.722 30.2336C178.722 29.7297 178.498 29.5058 178.05 29.5058H175.753V27.7702H178.554C179.002 27.7702 179.226 27.5463 179.226 27.0424C179.226 26.5386 179.002 26.3146 178.554 26.3146H174.968C174.352 26.3146 174.128 26.5945 174.128 27.1544V33.5927C174.128 34.2085 174.408 34.4324 174.968 34.4324H178.61C179.058 34.4324 179.282 34.2085 179.282 33.7046C179.282 33.2008 179.058 32.9768 178.61 32.9768H175.753V32.9208ZM187.294 33.6486C187.294 33.1448 187.07 32.9208 186.622 32.9208H184.156V26.8745C184.156 26.4266 183.876 26.2027 183.316 26.2027C182.756 26.2027 182.476 26.4266 182.476 26.8745V33.5927C182.476 34.2085 182.756 34.4324 183.316 34.4324H186.678C187.07 34.4324 187.294 34.1525 187.294 33.6486ZM198.947 5.15235C198.947 5.48826 198.891 5.88015 198.779 6.27205C198.667 6.60795 198.499 6.94386 198.219 7.22379C197.995 7.50371 197.659 7.72765 197.266 7.95159C196.594 8.2875 195.53 8.23151 194.689 8.17553C194.465 8.17553 194.297 8.11954 194.073 8.06356V2.07318H195.866C196.37 2.07318 196.818 2.18515 197.21 2.35311C197.603 2.52106 197.939 2.80098 198.163 3.08091C198.443 3.36083 198.611 3.69674 198.723 4.08864C198.891 4.42454 198.947 4.81644 198.947 5.15235ZM201.468 6.94386C201.693 6.38402 201.861 5.7122 201.861 5.09636C201.861 4.48053 201.749 3.8647 201.524 3.30485C201.3 2.68901 200.964 2.18515 200.516 1.73727C200.068 1.28939 199.508 0.953484 198.891 0.67356C198.275 0.393636 197.491 0.281666 196.65 0.281666H191.384V15.6775H194.129V9.74311C194.353 9.79909 194.577 9.85508 194.801 9.85508C195.25 9.91106 195.698 9.96705 196.258 9.96705C197.154 9.96705 197.939 9.85508 198.667 9.57515C199.395 9.29523 199.956 8.95932 200.46 8.51144C200.852 8.06356 201.244 7.5597 201.468 6.94386ZM212.842 9.63114H207.743L210.208 3.97667L212.842 9.63114ZM215.699 15.6775H218.612L211.441 0.281666H209.872L203.373 15.6775H205.222L207.071 11.3667H213.738L215.699 15.6775ZM229.425 6.60795C229.145 6.88788 228.865 7.11182 228.473 7.27977C228.081 7.44773 227.688 7.5597 227.184 7.5597H225.447V2.07318H227.128C227.632 2.07318 228.025 2.12917 228.417 2.29712C228.809 2.40909 229.089 2.63303 229.369 2.85697C229.649 3.08091 229.817 3.36083 229.985 3.69674C230.098 4.03265 230.21 4.36856 230.21 4.76045C230.21 5.09636 230.154 5.43227 230.042 5.76818C229.873 5.99212 229.705 6.32803 229.425 6.60795ZM235.196 15.6215L235.42 15.5095V14.0539L234.58 14.1659C234.355 14.1659 234.131 14.1099 233.963 14.0539C233.795 13.998 233.627 13.886 233.459 13.774C233.291 13.6061 233.123 13.4381 232.955 13.2702C232.787 13.0462 232.619 12.8223 232.395 12.4864C231.834 11.6466 231.386 10.9748 231.05 10.4709C230.714 9.96705 230.49 9.57515 230.266 9.29523C230.098 9.0153 229.929 8.84735 229.817 8.67939C230.154 8.62341 230.434 8.51144 230.714 8.34348C231.218 8.06356 231.666 7.72765 232.002 7.27977C232.339 6.88788 232.563 6.38401 232.731 5.93614C232.899 5.48826 232.955 4.98439 232.955 4.53651C232.955 4.14462 232.899 3.64076 232.731 3.19288C232.563 2.68901 232.283 2.24114 231.89 1.79326C231.498 1.34538 230.938 1.00947 230.322 0.729545C229.649 0.44962 228.809 0.337651 227.857 0.337651H222.702V15.7335H225.447V9.29523H225.952C226.288 9.29523 226.568 9.35121 226.792 9.4072C227.016 9.46318 227.184 9.57515 227.352 9.68712C227.52 9.85508 227.688 10.023 227.857 10.247C228.025 10.5269 228.249 10.8068 228.529 11.1987L230.154 13.6061C230.378 13.942 230.602 14.2219 230.77 14.5018C230.994 14.7817 231.218 15.0617 231.498 15.2296C231.778 15.4536 232.058 15.6215 232.395 15.7335C232.731 15.8455 233.123 15.9014 233.627 15.9014C233.963 15.9014 234.243 15.9014 234.412 15.8455C234.692 15.8455 234.916 15.7895 235.196 15.6215ZM246.121 6.38402L251.836 0.281666H249.65L242.423 7.89561V0.281666H239.678V15.6775H242.423V10.303L244.328 8.2875L249.707 15.6775H252.9L246.121 6.38402Z" fill="#811806"/>
</svg>
