<svg id="Layer_1" data-name="Layer 1" xmlns="http://www.w3.org/2000/svg" viewBox="0 0 295.42 77.42"><defs><style>.cls-1{fill:none;stroke:#231f20;stroke-width:0.86px;}</style></defs><path class="cls-1" d="M34.22,50.15" transform="translate(-5.28 -4.81)"/><path d="M118.85,36.6h35.49V51.81H118.85Z" transform="translate(-5.28 -4.81)"/><path d="M48.6,74.15l-9.16,8.08h-25L5.28,74.15V50.3l5.47-6.75-5.47-6.8V12.94l9.17-8.13h25l9.16,8.13V36.75L43,43.55,48.6,50.3ZM34.26,36.35V19.1H19.58V36.35Zm0,31.59V50.69H19.58V67.94Z" transform="translate(-5.28 -4.81)"/><path d="M103.82,42.56,94.4,50.69H74.84V67.94h29V82.23H60.55V44.43l9.21-8.08H89.53V19.1H75v5.82H60.55v-12l9.21-8.08H94.65l9.17,8.08Z" transform="translate(-5.28 -4.81)"/><path d="M217.57,74.15l-9.36,8.08H182.73l-9.11-8.08V12.94l9.11-8.13h25.48L217.57,13V24.92H203.28V19.1H187.91V67.94h15.37V61.68h14.29Z" transform="translate(-5.28 -4.81)"/><path d="M274.46,74.15l-9.21,8.08H238.64l-9.12-8.08V12.94l9.12-8.13h26.61l9.21,8.13Zm-14.34-6.21V19.1H243.81V67.94Z" transform="translate(-5.28 -4.81)"/><path d="M286.41,82.23V67.94H300.7V82.23Z" transform="translate(-5.28 -4.81)"/></svg>