<svg width="148" height="40" viewBox="0 0 148 40" fill="none" xmlns="http://www.w3.org/2000/svg">
<path d="M22.8455 40H41.9721V20.8728C39.4603 20.8728 36.9731 21.3675 34.6525 22.3288C32.3319 23.29 30.2234 24.6989 28.4473 26.475C26.6712 28.2512 25.2624 30.3598 24.3012 32.6804C23.34 35.001 22.8454 37.4882 22.8455 40ZM20.3544 40V0.286492C17.7469 0.28657 15.165 0.800241 12.756 1.79819C10.347 2.79615 8.15822 4.25882 6.31455 6.1027C4.47089 7.94659 3.00847 10.1356 2.01081 12.5447C1.01314 14.9538 0.499766 17.5358 0.5 20.1433C0.499766 22.7508 1.01314 25.3328 2.01081 27.7418C3.00847 30.1509 4.47089 32.3399 6.31455 34.1838C8.15822 36.0277 10.347 37.4904 12.756 38.4883C15.165 39.4863 17.7469 39.9999 20.3544 40ZM42.5735 9.86583C42.5735 7.24926 41.5341 4.73984 39.6839 2.88964C37.8337 1.03944 35.3243 0 32.7077 0C30.0912 0.000157297 27.582 1.03968 25.7319 2.88986C23.8818 4.74004 22.8425 7.24936 22.8425 9.86583C22.8424 11.1614 23.0975 12.4443 23.5933 13.6413C24.089 14.8383 24.8156 15.926 25.7317 16.8422C26.6478 17.7584 27.7353 18.4851 28.9323 18.981C30.1292 19.4769 31.4121 19.7322 32.7077 19.7322C34.0034 19.7322 35.2863 19.477 36.4833 18.9812C37.6803 18.4853 38.768 17.7586 39.6841 16.8424C40.6002 15.9262 41.3269 14.8385 41.8227 13.6415C42.3185 12.4444 42.5736 11.1615 42.5735 9.86583ZM76.2622 32.1715H79.1655V19.5976H67.763V22.148H76.0517V23.1746C76.0565 24.0691 75.9008 24.9573 75.592 25.7968C75.2989 26.6031 74.8403 27.3391 74.2457 27.9575C73.6139 28.6 72.853 29.1011 72.0132 29.4278C71.0308 29.8104 69.9831 29.997 68.929 29.9771C67.7073 29.9985 66.4965 29.7445 65.3864 29.2339C64.3683 28.7547 63.4765 28.0437 62.7826 27.158C62.0549 26.2119 61.5138 25.1361 61.1883 23.9878C60.8102 22.675 60.6248 21.3143 60.6379 19.9481C60.6258 18.5836 60.8055 17.2242 61.1717 15.9096C61.4851 14.7635 62.0144 13.6878 62.731 12.7401C63.4113 11.8552 64.2914 11.1439 65.2992 10.6642C66.402 10.1518 67.607 9.89738 68.8228 9.92039C69.7948 9.89977 70.7621 10.0607 71.6751 10.3949C72.4342 10.6797 73.1318 11.1071 73.7302 11.6541C74.2832 12.171 74.7391 12.7828 75.076 13.4607C75.4129 14.13 75.6457 14.8468 75.7664 15.5864H78.92C78.7462 14.5214 78.3994 13.492 77.8933 12.539C77.368 11.541 76.6658 10.6467 75.821 9.89964C74.9085 9.10272 73.8585 8.47848 72.7225 8.05743C71.4057 7.57817 70.0123 7.34399 68.6111 7.36647C66.9739 7.33775 65.3512 7.67706 63.8627 8.35934C62.5065 8.9944 61.2996 9.90828 60.3206 11.0414C59.3269 12.2099 58.5749 13.564 58.1083 15.0253C57.5919 16.6147 57.335 18.277 57.3473 19.9481C57.3348 21.6221 57.6039 23.2862 58.1433 24.871C58.6304 26.3279 59.3875 27.68 60.3752 28.8566C61.3414 29.9871 62.5371 30.8989 63.8828 31.5316C65.3175 32.2046 66.886 32.5438 68.4705 32.5238C69.4478 32.5381 70.4197 32.376 71.3394 32.0452C72.1427 31.7526 72.8914 31.3278 73.5547 30.7884C74.1759 30.2731 74.7187 29.6701 75.1662 28.9984C75.5942 28.3661 75.939 27.6814 76.1923 26.9611H76.2652L76.2622 32.1715ZM82.7272 32.1715H85.6684V7.72706H82.7343L82.7272 32.1715ZM102.052 23.3146C102.117 25.055 101.633 26.7716 100.67 28.2226C100.236 28.8576 99.6473 29.3713 98.9594 29.7152C98.2714 30.059 97.5071 30.2217 96.7388 30.1876C95.9702 30.2219 95.2056 30.0593 94.5173 29.7155C93.8291 29.3716 93.24 28.8578 92.8059 28.2226C91.8435 26.7713 91.3602 25.0549 91.4239 23.3146C91.3604 21.5751 91.8437 19.8595 92.8059 18.409C93.2396 17.7733 93.8286 17.2589 94.5169 16.9147C95.2052 16.5705 95.97 16.4079 96.7388 16.4423C97.5073 16.4082 98.2718 16.5709 98.9598 16.9151C99.6478 17.2593 100.236 17.7735 100.67 18.409C101.633 19.8592 102.116 21.575 102.052 23.3146ZM104.655 26.7511C105.044 25.6472 105.242 24.485 105.24 23.3146C105.241 22.1442 105.044 20.9822 104.655 19.8781C104.285 18.8012 103.714 17.8041 102.973 16.9393C102.23 16.0805 101.32 15.3811 100.299 14.8829C99.1894 14.3513 97.9711 14.0849 96.7406 14.1048C95.51 14.0842 94.2916 14.3506 93.1819 14.8829C92.1597 15.3804 91.2489 16.0799 90.5046 16.9393C89.7641 17.8044 89.1935 18.8015 88.8226 19.8781C88.4347 20.9823 88.2373 22.1443 88.2389 23.3146C88.237 24.4849 88.4343 25.6471 88.8226 26.7511C89.1929 27.8288 89.7636 28.8267 90.5046 29.6923C91.249 30.551 92.1598 31.2497 93.1819 31.7463C94.2913 32.2797 95.5098 32.5469 96.7406 32.5268C97.9713 32.5462 99.1897 32.279 100.299 31.7463C101.32 31.2491 102.229 30.5504 102.973 29.6923C103.714 28.827 104.285 27.829 104.655 26.7511ZM121.174 23.3146C121.238 25.0547 120.755 26.7712 119.793 28.2226C119.359 28.8576 118.77 29.3713 118.081 29.7151C117.393 30.0589 116.629 30.2216 115.86 30.1876C115.096 30.2239 114.336 30.0621 113.653 29.7178C112.97 29.3735 112.388 28.8584 111.963 28.2226C111.082 26.7376 110.617 25.0427 110.617 23.3158C110.617 21.589 111.082 19.894 111.963 18.409C112.388 17.7727 112.97 17.2572 113.653 16.9125C114.336 16.5679 115.096 16.4059 115.86 16.4423C116.629 16.4082 117.394 16.571 118.082 16.9151C118.77 17.2593 119.359 17.7735 119.793 18.409C120.755 19.8596 121.238 21.5753 121.174 23.3146ZM123.886 26.8051C124.521 24.522 124.521 22.109 123.886 19.8259C123.596 18.7641 123.109 17.7665 122.45 16.8853C121.81 16.0458 120.994 15.3573 120.058 14.8687C119.034 14.3451 117.896 14.0834 116.746 14.1072C115.45 14.0773 114.177 14.4621 113.115 15.2056C112.071 15.9596 111.276 17.0076 110.832 18.2157H110.756V7.72945H107.817V32.1739H110.756V28.4195H110.829C111.273 29.6283 112.068 30.677 113.112 31.4313C114.174 32.1746 115.447 32.5594 116.743 32.5298C117.893 32.5535 119.031 32.2919 120.055 31.7682C120.991 31.2783 121.807 30.5884 122.447 29.7475C123.106 28.867 123.593 27.8696 123.883 26.8081L123.886 26.8051ZM138.347 24.4878C138.347 26.4004 137.898 27.8288 137 28.773C136.52 29.255 135.944 29.6304 135.309 29.8747C134.674 30.1189 133.995 30.2266 133.316 30.1906C132.37 30.2212 131.442 29.9209 130.693 29.3412C130.358 29.0901 130.087 28.7633 129.903 28.3875C129.718 28.0116 129.625 27.5974 129.631 27.1787C129.607 26.7634 129.687 26.3487 129.863 25.9717C130.039 25.5947 130.306 25.2672 130.639 25.0186C131.537 24.4466 132.568 24.1172 133.632 24.0625L138.345 23.5287L138.347 24.4878ZM138.452 32.1745H141.286V21.4048C141.315 20.252 141.123 19.1044 140.719 18.0241C140.405 17.1763 139.894 16.4149 139.229 15.8022C138.564 15.1895 137.764 14.7428 136.893 14.4986C135.995 14.2356 135.064 14.1046 134.129 14.1095C133.123 14.0925 132.121 14.2544 131.171 14.5876C130.371 14.8698 129.631 15.3022 128.993 15.8616C128.405 16.391 127.934 17.0375 127.611 17.7596C127.282 18.4858 127.09 19.2662 127.044 20.062H129.985C130.004 19.091 130.397 18.1648 131.082 17.4766C131.496 17.1106 131.978 16.831 132.502 16.6545C133.025 16.478 133.578 16.408 134.129 16.4488C134.703 16.4094 135.279 16.4915 135.82 16.6899C136.36 16.8882 136.853 17.1984 137.265 17.6C138.021 18.464 138.409 19.5894 138.347 20.7358V21.3022L133.387 21.833C132.485 21.9212 131.591 22.0756 130.712 22.2951C129.934 22.4809 129.192 22.7916 128.514 23.215C127.9 23.6053 127.385 24.1332 127.009 24.7571C126.614 25.4518 126.418 26.2422 126.443 27.0412C126.43 27.8346 126.592 28.6211 126.917 29.3448C127.226 30.0151 127.68 30.6081 128.247 31.0808C128.829 31.5612 129.496 31.9276 130.213 32.1609C130.984 32.4132 131.792 32.539 132.604 32.5333C133.871 32.5632 135.117 32.2119 136.182 31.5251C137.2 30.8484 137.97 29.8595 138.377 28.7072H138.449L138.452 32.1745ZM147.673 7.73003H144.732V32.1745H147.673V7.73003Z" fill="black"/>
</svg>
