<svg width="171" height="109" viewBox="0 0 171 109" fill="none" xmlns="http://www.w3.org/2000/svg">
<path d="M170.967 52.4319C170.534 46.0201 165.567 40.8546 167.572 38.326C167.933 37.8564 168.421 37.748 168.746 37.5494C168.98 37.4049 168.999 37.0798 168.782 36.9172C168.294 36.5199 167.048 35.7794 165.603 35.7432C163.887 35.7252 162.244 36.2128 161.178 37.5494C159.011 39.7167 154.694 52.0165 150.576 56.5318C149.98 57.182 148.734 58.8075 146.892 58.6811C145.772 58.6089 145.085 57.3626 144.905 57.0014C144.345 55.8274 144.182 54.2741 144.291 52.5403C149.763 46.7787 154.766 35.6168 155.471 31.1557C156.464 24.8523 147.903 23.01 142.178 32.3477C138.656 38.1996 136.163 48.8558 138.15 55.4301C135.314 57.5432 131.937 59.2591 128.939 58.6811C127.837 58.4644 127.132 57.3626 126.952 57.0014C126.338 55.701 126.211 53.949 126.374 51.9984C131.955 46.2549 137.102 34.8041 137.807 30.361C138.818 24.0576 130.347 22.1973 124.225 32.3477C120.883 37.8925 118.68 47.7179 120.414 54.3825C118.264 56.2067 114.471 58.8437 110.408 58.8798C108.132 58.8978 106.705 57.9045 105.784 56.4415C104.646 54.6354 105.025 51.0231 105.098 50.3368C105.098 50.3007 105.098 50.2645 105.116 50.2284C111.004 49.8491 116.982 47.1399 117.379 41.6493C117.704 37.1701 113.009 35.8155 109.83 36.4476C104.845 37.4591 100.745 40.6379 98.9568 46.3272C97.3132 51.5469 98.1982 60.3969 105.658 61.3361C112.322 62.1669 117.506 59.0243 121.046 56.1706C122.31 59.2049 124.64 61.2458 128.433 61.3361C132.153 61.4084 135.386 59.837 138.8 57.0736C139.992 59.548 142.051 61.1374 145.266 61.1374C149.547 61.1374 152.635 58.049 155.778 51.6372C157.891 47.3567 159.083 44.5752 160.167 42.444C160.618 44.8823 162.081 47.5373 163.129 50.3368C164.555 54.1477 163.851 56.4776 161.72 57.2001C159.932 57.7961 158.18 57.182 157.403 55.6468C157.205 55.2675 156.663 55.3759 156.627 55.8094C156.5 58.067 158.09 60.9207 161.738 61.3361C168.89 62.1489 171.202 55.8997 170.967 52.4319ZM105.332 48.8919C105.351 48.8196 105.369 48.7293 105.369 48.6571C106.199 42.8955 111.383 35.382 111.365 39.4458C111.365 44.0695 109.812 47.8082 105.332 48.8919ZM126.843 48.9822C127.512 45.6408 128.722 42.1189 129.625 39.5C132.226 32.0226 134.809 27.0016 135.928 28.9883C136.741 30.4513 132.75 41.7577 126.843 48.9822ZM144.652 49.6504C145.284 46.1104 146.584 42.2814 147.56 39.4819C150.143 32.0046 152.454 27.7963 153.556 29.783C154.405 31.264 150.594 42.4801 144.652 49.6504ZM95.6696 52.4319C95.2362 46.0201 90.2693 40.8546 92.2741 38.326C92.6354 37.8564 93.123 37.748 93.4481 37.5494C93.6829 37.4049 93.701 37.0798 93.4842 36.9172C92.9966 36.5199 91.7503 35.7794 90.3054 35.7432C89.3301 35.7252 88.3729 35.8877 87.524 36.267C86.061 36.8992 84.6884 38.2899 83.2615 41.2881C82.9003 42.0647 82.503 42.8594 82.1056 43.6902C81.329 45.3519 80.4982 47.1038 79.577 48.8196C79.2339 49.4698 78.0779 51.6733 76.9762 53.4072C76.9943 53.064 76.9943 52.7209 76.9762 52.4138C76.5427 46.0021 71.5759 40.8365 73.5807 38.308C73.9419 37.8384 74.4296 37.73 74.7547 37.5313C74.9894 37.3868 75.0075 37.0617 74.7908 36.8992C74.3031 36.5018 73.0569 35.7613 71.612 35.7252C70.131 35.7071 68.7041 36.0683 67.6566 37.0437C67.3134 37.3507 66.9522 37.7119 66.6271 38.1996C65.3628 40.0057 63.5747 44.503 61.299 48.8196C60.8474 49.6685 60.3598 50.5174 59.8541 51.3121C59.3484 52.1249 58.8246 52.9015 58.3008 53.642C57.777 54.3645 57.2352 55.0688 56.6933 55.6649C56.1515 56.2609 55.5916 56.8027 55.0678 57.2362C55.0498 57.2543 55.0317 57.2723 54.9956 57.2904C54.9956 57.2904 54.3273 57.76 53.9119 57.8683C53.4965 57.9767 53.2256 57.8142 52.9547 57.5432C52.3948 56.8389 52.4309 54.8882 53.9119 49.2712C55.6638 42.6065 59.0413 37.2785 59.0413 37.2785C59.0413 37.2785 58.4995 36.7908 57.6325 36.5741C56.0251 36.1948 53.0269 36.1587 52.0516 36.9534C50.5525 38.1815 47.3918 44.521 46.0191 53.0099C45.6759 53.5156 45.3147 54.0032 44.9535 54.4728C44.4658 55.105 43.9601 55.701 43.4544 56.2067C43.0571 56.6221 42.6597 56.9833 42.2624 57.2904C42.1721 57.3626 41.576 57.76 41.1967 57.8503C40.7813 57.9586 40.5104 57.7961 40.2214 57.5252C39.6615 56.8208 39.6977 54.8521 41.1787 49.2531C42.9306 42.5885 46.3081 37.2604 46.3081 37.2604C46.3081 37.2604 45.7663 36.7727 44.8993 36.556C43.2919 36.1767 40.2937 36.1406 39.3184 36.9353C37.8012 38.1815 34.6224 44.5933 33.2498 53.1724C32.0938 60.5053 36.0854 61.2819 37.9638 61.2819C39.4267 61.2819 40.5465 60.9388 41.8831 60.0176C42.3346 59.7467 42.8042 59.4036 43.2557 59.0243C43.8156 58.5547 44.3394 57.9948 44.8632 57.3988C45.1883 57.0375 45.4953 56.6402 45.8024 56.2428C46.0552 60.7582 49.1257 61.3 50.715 61.3C52.178 61.3 53.2798 60.9568 54.6163 60.0538C54.6163 60.0538 54.6163 60.0538 54.6344 60.0538C55.2484 59.6925 55.8445 59.2049 56.4405 58.663C57.0184 58.1031 57.5964 57.471 58.1563 56.7847C58.7162 56.0983 59.258 55.3578 59.7818 54.5631C61.2809 52.3235 61.7505 51.4385 61.3351 52.1249C61.8408 51.276 62.3285 50.409 62.7981 49.524C63.7373 47.7721 64.5681 45.9659 65.3267 44.2862C65.6337 43.5999 65.9227 42.9497 66.2117 42.3176C66.6451 44.792 68.1262 47.465 69.1918 50.3007C70.6186 54.1116 69.9142 56.4415 67.783 57.164C65.9949 57.76 64.243 57.1459 63.4663 55.6107C63.2677 55.2314 62.7258 55.3398 62.6897 55.7732C62.5633 58.0309 64.1527 60.8846 67.801 61.3C69.6072 61.4987 71.1063 61.2458 72.3344 60.704C76.615 58.9701 78.9088 53.931 80.0466 51.6914C81.4193 49.0183 83.7853 43.9792 84.7967 41.9202C85.1218 44.503 86.7112 47.3025 87.8491 50.3007C89.2759 54.1116 88.5716 56.4415 86.4403 57.164C84.6523 57.76 82.9003 57.1459 82.1237 55.6107C81.925 55.2314 81.3832 55.3398 81.347 55.7732C81.2206 58.0309 82.81 60.8846 86.4584 61.3C93.6107 62.1489 95.9044 55.8997 95.6696 52.4319ZM34.2431 28.1575C31.6604 19.8312 18.2047 20.4634 10.4383 23.8408C5.47148 25.9901 0.901963 30.5596 1.55217 35.5626C2.07595 39.5361 5.36311 41.27 7.33179 41.7396C7.90975 41.8841 8.39741 41.7938 8.10843 41.2158C5.21862 35.1653 8.05424 26.2249 14.6827 24.4369C23.1896 22.1611 28.012 26.6765 27.6688 32.1852C27.5063 34.8944 24.8151 40.6379 16.5972 41.9925C16.5972 41.9925 18.4937 34.8763 20.8236 31.5169C21.6183 30.361 22.5033 29.5663 23.4244 29.0244C23.6412 28.898 23.5508 28.5729 23.3341 28.5007C22.2143 28.1394 19.8122 27.5253 16.525 28.8799C12.7321 30.4513 11.1427 35.8697 9.75201 40.1683L5.7424 52.6306C5.09219 54.6715 4.4781 56.5137 3.05126 57.3446C1.94952 57.9767 1.20901 58.067 0.432369 57.9587C0.16145 57.9225 -0.0372247 58.1935 0.0711432 58.4463C0.486553 59.3313 1.42574 60.4692 3.17769 60.9388C6.78995 61.878 10.9982 59.6022 12.4251 55.4843C13.0933 53.5336 15.0078 47.9346 15.0078 47.9346C17.6629 47.8804 19.3426 55.6287 20.1011 57.3084C22.5394 62.7449 28.7886 61.9502 30.9379 59.6745C31.1366 59.4577 31.0282 59.1326 30.7573 59.0604C28.1745 58.3921 27.0186 54.8882 25.9891 51.8901C24.4178 47.3386 23.4786 44.0876 19.1619 43.2387C30.3058 41.3784 36.1938 34.4609 34.2431 28.1575Z" fill="#6F2C91"/>
<path d="M147.885 87.4887C150.052 87.4887 151.389 86.4592 151.389 84.8517C151.389 83.0276 149.583 82.6483 148.282 82.3593C146.91 82.0522 146.187 81.8897 146.187 81.1131C146.187 80.4087 146.819 79.9571 148.012 79.9571C149.077 79.9571 149.962 80.4448 150.486 81.1492C150.522 81.2034 151.19 80.8783 151.19 80.3364C151.19 79.5417 150.107 78.6387 147.957 78.6387C145.916 78.6387 144.598 79.7043 144.598 81.2756C144.598 83.0637 146.314 83.443 147.56 83.7139C148.951 84.0029 149.727 84.1654 149.727 85.0324C149.727 85.7367 149.059 86.1702 147.867 86.1702C146.531 86.1702 145.591 85.6284 145.031 84.9059C144.977 84.8698 144.345 85.1588 144.345 85.7006C144.345 86.5134 145.555 87.4887 147.885 87.4887ZM140.913 80.0294C140.426 79.2708 139.396 78.6567 138.024 78.6567C135.694 78.6567 134.032 80.4267 134.032 83.0817C134.032 85.7368 135.712 87.5068 137.969 87.5068C139.306 87.5068 140.281 86.8927 140.932 85.8812V86.5314C140.932 87.1636 141.239 87.3442 141.708 87.3442H141.889C142.34 87.3442 142.665 87.1455 142.665 86.5134V76.7242C142.665 75.514 142.105 75.2431 141.564 75.2431C141.239 75.2431 140.932 75.3876 140.932 75.4418V80.0294H140.913ZM140.932 83.6055C140.932 85.0504 139.703 86.0799 138.295 86.0799C136.795 86.0799 135.694 84.8337 135.694 83.0817C135.694 81.2756 136.741 80.0836 138.331 80.0836C139.631 80.0836 140.48 80.7518 140.932 81.8174V83.6055ZM126.248 80.1377C126.193 79.036 125.67 78.7651 125.164 78.7651C124.821 78.7651 124.532 78.9096 124.532 78.9638V86.5314C124.532 87.1636 124.839 87.3623 125.308 87.3623H125.507C125.941 87.3623 126.284 87.1636 126.284 86.5314V81.6549C126.699 80.7699 127.548 80.1739 128.65 80.1739C129.878 80.1739 130.6 81.0408 130.6 82.4677V86.5314C130.6 87.1636 130.907 87.3623 131.377 87.3623H131.576C132.009 87.3623 132.352 87.1636 132.352 86.5314V82.2509C132.352 80.1739 131.323 78.6387 129.101 78.6387C127.765 78.6387 126.826 79.2527 126.248 80.1377ZM121.19 87.3442H121.371C121.823 87.3442 122.148 87.1455 122.148 86.5134V79.5959C122.148 78.9457 121.841 78.747 121.371 78.747H121.19C120.739 78.747 120.396 78.9638 120.396 79.5959V86.5134C120.396 87.1636 120.739 87.3442 121.19 87.3442ZM121.281 77.0493C121.949 77.0493 122.31 76.7242 122.31 76.092C122.31 75.4599 121.949 75.1167 121.299 75.1167C120.631 75.1167 120.251 75.4599 120.251 76.092C120.251 76.7061 120.631 77.0493 121.281 77.0493ZM116.982 87.3442H117.163C117.614 87.3442 117.939 87.1455 117.939 86.5134V76.7242C117.939 75.514 117.38 75.2431 116.838 75.2431C116.513 75.2431 116.206 75.3876 116.206 75.4418V86.5314C116.206 87.1636 116.531 87.3442 116.982 87.3442ZM107.048 85.8271V82.1787H109.938C111.618 82.1787 112.377 82.7747 112.377 83.9667C112.377 85.2852 111.708 85.8271 109.884 85.8271H107.048ZM107.048 80.8963V77.4105H109.776C111.239 77.4105 111.889 77.9884 111.889 79.1082C111.889 80.1919 111.13 80.8963 109.812 80.8963H107.048ZM106.236 87.272H109.938C112.9 87.272 114.237 86.2244 114.237 84.1112C114.237 82.7747 113.46 81.7091 111.781 81.3298C113.081 80.9505 113.767 80.1197 113.767 78.8915C113.767 76.977 112.413 75.9475 109.956 75.9475H106.236C105.658 75.9475 105.278 76.3449 105.278 76.959V86.2605C105.278 86.8746 105.658 87.272 106.236 87.272ZM94.7487 81.1492C96.4284 80.6435 97.3676 79.7043 97.3676 78.3858C97.3676 76.8506 96.1395 75.7308 94.4236 75.7308C92.5272 75.7308 91.2629 76.977 91.2629 78.5483C91.2629 79.4695 91.6964 80.2281 92.2743 80.8421C90.5043 81.384 89.4207 82.4315 89.4207 84.0932C89.4207 86.2786 91.0642 87.5068 93.5206 87.5068C95.11 87.5068 96.4646 86.8385 97.5121 85.6826L98.7222 86.8385C99.1557 87.29 99.5711 87.3623 99.8601 87.3623C100.637 87.3623 100.872 86.6579 100.817 86.6218L98.4332 84.4905C99.1557 83.443 99.6975 82.1606 100.005 80.7338C100.023 80.6615 99.7517 80.2461 99.2279 80.2461C98.7584 80.2461 98.4333 80.499 98.2346 81.2214C97.9998 82.0703 97.765 82.8108 97.3676 83.5152L94.7487 81.1492ZM96.5007 84.7434C95.7602 85.5923 94.7849 86.1522 93.647 86.1522C92.166 86.1522 91.1004 85.3394 91.1004 83.9667C91.1004 82.7566 91.9312 82.0703 93.1052 81.691L96.5007 84.7434ZM93.7915 80.3725C93.2135 79.7946 92.8884 79.2708 92.8884 78.5303C92.8884 77.6814 93.4122 77.0131 94.4056 77.0131C95.2725 77.0131 95.8685 77.6453 95.8685 78.4761C95.8866 79.3972 95.2364 79.9752 93.7915 80.3725ZM81.6182 87.4887C83.7855 87.4887 85.1221 86.4592 85.1221 84.8517C85.1221 83.0276 83.3159 82.6483 82.0155 82.3593C80.6429 82.0522 79.9204 81.8897 79.9204 81.1131C79.9204 80.4087 80.5526 79.9571 81.7446 79.9571C82.8102 79.9571 83.6952 80.4448 84.219 81.1492C84.2551 81.2034 84.9234 80.8783 84.9234 80.3364C84.9234 79.5417 83.8397 78.6387 81.6904 78.6387C79.6314 78.6387 78.331 79.7043 78.331 81.2756C78.331 83.0637 80.0468 83.443 81.2931 83.7139C82.6838 84.0029 83.4604 84.1654 83.4604 85.0324C83.4604 85.7367 82.7921 86.1702 81.6001 86.1702C80.2636 86.1702 79.3244 85.6284 78.7645 84.9059C78.7103 84.8698 78.0781 85.1588 78.0781 85.7006C78.0601 86.5134 79.2702 87.4887 81.6182 87.4887ZM70.384 80.1377C70.3298 79.036 69.8061 78.7651 69.3004 78.7651C68.9572 78.7651 68.6682 78.9096 68.6682 78.9638V86.5314C68.6682 87.1636 68.9753 87.3623 69.4448 87.3623H69.6435C70.077 87.3623 70.4202 87.1636 70.4202 86.5314V81.6549C70.8356 80.7699 71.6844 80.1739 72.7862 80.1739C74.0144 80.1739 74.7368 81.0408 74.7368 82.4677V86.5314C74.7368 87.1636 75.0439 87.3623 75.5135 87.3623H75.7121C76.1456 87.3623 76.4888 87.1636 76.4888 86.5314V82.2509C76.4888 80.1739 75.4593 78.6387 73.2377 78.6387C71.9012 78.6387 70.962 79.2527 70.384 80.1377ZM65.3269 87.3442H65.5075C65.959 87.3442 66.2841 87.1455 66.2841 86.5134V79.5959C66.2841 78.9457 65.9771 78.747 65.5075 78.747H65.3269C64.8753 78.747 64.5322 78.9638 64.5322 79.5959V86.5134C64.5322 87.1636 64.8753 87.3442 65.3269 87.3442ZM65.4172 77.0493C66.0854 77.0493 66.4467 76.7242 66.4467 76.092C66.4467 75.4599 66.0854 75.1167 65.4352 75.1167C64.767 75.1167 64.3877 75.4599 64.3877 76.092C64.3877 76.7061 64.767 77.0493 65.4172 77.0493ZM60.5226 82.2148H60.2878C56.4768 82.287 54.6346 83.1179 54.6346 85.0685C54.6346 86.5134 55.7002 87.4706 57.5063 87.4706C58.8067 87.4706 59.9085 86.9107 60.5406 86.0077C60.5587 87.0372 60.9921 87.3623 61.6062 87.3623C61.9133 87.3623 62.2384 87.2539 62.2384 87.1636V81.9981C62.2384 79.8668 60.938 78.6387 58.5539 78.6387C56.1698 78.6387 54.9416 79.8488 54.9416 80.6435C54.9416 81.4923 56.0072 81.5104 56.0072 81.4923C56.3865 80.7157 57.1451 80.0474 58.4274 80.0474C59.782 80.0474 60.5045 80.7518 60.5045 82.0342V82.2148H60.5226ZM57.9398 86.2244C56.9464 86.2244 56.3504 85.7548 56.3504 84.9962C56.3504 83.8584 57.6147 83.4068 60.071 83.3165L60.5406 83.2985V83.9487C60.5226 85.2852 59.4389 86.2244 57.9398 86.2244ZM49.0898 80.2642V84.7073C49.0898 86.5314 49.8844 87.4887 51.6183 87.4887C52.8646 87.4887 53.587 86.8565 53.587 86.2063C53.587 85.6645 53.1535 85.4116 53.0994 85.4658C52.8284 85.809 52.4492 86.0619 51.9073 86.0619C51.0765 86.0619 50.7875 85.5561 50.7875 84.5086V80.2461H52.702C53.2439 80.2461 53.4606 80.0113 53.4606 79.5778V79.4514C53.4606 79.036 53.2619 78.8193 52.7201 78.8193H50.7875V77.5189C50.7875 76.8686 50.4985 76.688 50.0289 76.688H49.8483C49.3787 76.688 49.0717 76.9228 49.0717 77.5189V78.8193H48.4576C47.9158 78.8193 47.699 79.0541 47.699 79.4695V79.5959C47.699 80.0113 47.9158 80.2461 48.4576 80.2461H49.0898V80.2642ZM43.4907 80.2281C43.4727 79.036 42.9308 78.7651 42.4071 78.7651C42.0639 78.7651 41.7749 78.9096 41.7749 78.9638V86.5314C41.7749 87.1636 42.082 87.3623 42.5516 87.3623H42.7502C43.1837 87.3623 43.5269 87.1636 43.5269 86.5314V83.5694C43.5269 81.6188 44.0687 80.3003 45.4414 80.3003C45.911 80.3003 46.2541 80.4628 46.507 80.6615C46.5431 80.6976 47.0308 80.4267 47.0308 79.7765C47.0308 79.0721 46.525 78.6567 45.64 78.6567C44.5564 78.6387 43.852 79.1986 43.4907 80.2281ZM37.7472 86.0077C37.8014 87.0733 38.3252 87.3442 38.849 87.3442C39.1741 87.3442 39.4631 87.1997 39.4631 87.1455V79.5959C39.4631 78.9457 39.156 78.747 38.6864 78.747H38.4878C38.0543 78.747 37.7292 78.9638 37.7292 79.5959V84.4725C37.2957 85.3755 36.4649 85.9715 35.4173 85.9715C34.135 85.9715 33.3945 85.1046 33.3945 83.6597V79.5959C33.3945 78.9457 33.0874 78.747 32.6178 78.747H32.4192C31.9857 78.747 31.6606 78.9638 31.6606 79.5959V83.8764C31.6606 85.9715 32.672 87.4887 34.8936 87.4887C36.2301 87.4887 37.1693 86.8746 37.7472 86.0077ZM25.5017 87.5068C28.5179 87.5068 29.9989 85.7006 29.9989 84.8698C29.9989 84.0209 28.9153 83.8223 28.8791 83.9126C28.4096 85.1407 27.1272 85.8993 25.61 85.8993C23.3343 85.8993 21.6727 84.1293 21.6727 81.6188C21.6727 79.0902 23.2801 77.3563 25.5739 77.3563C26.8563 77.3563 28.1386 77.9704 28.7708 79.1082C28.8069 79.1805 29.8183 78.9638 29.8183 78.1329C29.8183 77.3382 28.3734 75.7308 25.5378 75.7308C22.1423 75.7308 19.7762 78.1871 19.7762 81.6549C19.7943 85.0865 22.1423 87.5068 25.5017 87.5068Z" fill="#6F2C91"/>
</svg>
