<svg width="216" height="86" viewBox="0 0 216 86" fill="none" xmlns="http://www.w3.org/2000/svg">
<path d="M75.4768 40.2407L75.4625 40.2522C75.2333 40.4184 74.9669 40.4957 74.7033 40.4957C74.2965 40.4957 73.8984 40.3066 73.6405 39.9514C73.2194 39.3641 73.354 38.5506 73.9413 38.1323L73.9557 38.1208C74.5401 37.6997 75.3565 37.8344 75.7747 38.4188C76.1959 39.006 76.0612 39.8225 75.4768 40.2407ZM75.262 44.916C73.8497 49.0297 71.2485 52.5017 67.7392 54.9568C64.4734 57.24 60.4428 58.6494 56.0798 59.0276C55.5011 59.0792 54.8967 59.1049 54.2721 59.1049C48.8435 59.1049 41.951 57.1541 37.333 52.5046C33.6633 48.8063 31.9961 43.942 32.5146 38.4331C32.6893 36.5682 33.5029 34.7892 34.8006 33.4227C36.2702 31.8758 38.1982 31.0192 40.3725 30.9505C42.6786 30.8731 45.1194 31.7927 46.7379 33.3396C48.1245 34.6631 48.8893 36.3791 48.9667 38.3156C48.9753 38.3729 48.981 38.4274 48.981 38.4875C49.0011 39.8082 49.4795 40.9283 50.4105 41.8163C51.5421 42.8963 53.2609 43.5352 54.8909 43.4836C58.1424 43.3805 60.1907 40.7994 60.2279 38.4675C60.3253 32.1336 57.3345 28.0485 54.8079 25.7367C52.7768 23.8775 50.2386 22.4193 47.4713 21.5198C44.8128 20.6575 42.0598 20.3424 39.516 20.6088C34.6889 21.113 30.7041 22.7889 27.6703 25.5906C24.7397 28.2977 22.6972 32.0448 21.5943 36.7343C20.6059 40.9311 20.9382 45.7181 22.5282 50.2071C24.3243 55.2777 27.6216 59.7008 32.0648 63.0038C39.516 68.5385 46.2452 69.7588 50.5795 69.8075C51.3014 69.8161 51.8772 70.4063 51.8686 71.1282C51.8601 71.8415 51.2785 72.4173 50.5652 72.4173C50.5595 72.4173 50.5566 72.4173 50.5509 72.4173C45.8327 72.3629 38.5219 71.048 30.5121 65.0979C19.7694 57.1168 17.0193 44.8014 19.0561 36.1356C20.2822 30.9333 22.5855 26.7393 25.9028 23.6741C29.3605 20.4828 33.8495 18.5777 39.2495 18.0134C45.3313 17.3774 51.9689 19.6004 56.5725 23.8116C60.7636 27.6446 62.9293 32.7266 62.8434 38.5076C62.8147 40.3553 62.0098 42.226 60.629 43.6383C59.1536 45.1509 57.1455 46.0217 54.9797 46.0934C52.6736 46.1679 50.2329 45.2511 48.6143 43.7042C47.2278 42.3807 46.4629 40.6647 46.3856 38.7282C46.377 38.6709 46.3712 38.6164 46.3712 38.5563C46.3512 37.2356 45.8728 36.1155 44.9417 35.2275C43.8102 34.1475 42.0942 33.5086 40.4613 33.5602C37.2614 33.6633 35.3507 36.2129 35.1186 38.6795C34.6689 43.4607 36.0382 47.4914 39.1923 50.6655C43.7472 55.2519 50.8459 56.8676 55.8592 56.4321C59.7667 56.0912 63.359 54.8451 66.2495 52.8226C69.3463 50.6569 71.5493 47.7119 72.8012 44.0709C73.0361 43.3891 73.778 43.0281 74.4598 43.2602C75.133 43.4951 75.4969 44.237 75.262 44.916ZM72.6608 59.2997L72.6465 59.3112C72.4173 59.4745 72.1537 59.5518 71.8931 59.5518C71.4863 59.5518 71.0823 59.3628 70.8274 59.0047C70.4091 58.4174 70.5495 57.601 71.1368 57.1856L71.1511 57.1741C71.7383 56.7559 72.5548 56.8962 72.9702 57.4835C73.3856 58.0679 73.2481 58.8843 72.6608 59.2997ZM68.1431 62.3621C67.9111 62.4939 62.3449 65.6107 53.6734 65.7912C53.4786 65.7969 53.2838 65.7969 53.089 65.7969C44.81 65.7969 36.4736 62.1645 31.214 56.2288C29.0454 53.7823 27.4612 51.0407 26.5101 48.0815C25.4874 44.8988 25.2153 41.527 25.708 38.0607C26.4299 32.9701 28.6873 29.1858 32.4115 26.8167C35.9093 24.5908 39.6936 24.3473 41.1575 24.3473H41.166C43.2172 24.3473 46.6778 25.0348 49.7001 26.9771C52.4359 28.736 55.7446 32.1508 55.9881 38.436C56.0168 39.155 55.4553 39.7623 54.7362 39.791C54.0143 39.8139 53.4099 39.2581 53.3812 38.5362C53.2208 34.391 51.5077 31.2427 48.2906 29.1743C45.5691 27.424 42.5354 26.957 41.166 26.957H41.1603C39.9228 26.957 36.7315 27.1604 33.8123 29.0196C30.7614 30.9619 28.9022 34.1274 28.292 38.4302C27.2234 45.9616 30.3517 51.3272 33.1649 54.5013C37.9432 59.8927 45.5319 63.1929 53.0833 63.1929C53.2638 63.1929 53.4414 63.19 53.619 63.1872C61.6345 63.021 66.7996 60.1305 66.854 60.1019C67.4814 59.7466 68.2749 59.9643 68.633 60.5889C68.9882 61.2105 68.7705 62.0069 68.1431 62.3621ZM59.463 71.9332C58.9416 72.0993 57.9619 72.2397 57.2343 72.3285C57.1798 72.3342 57.1283 72.3371 57.0738 72.3371C56.4236 72.3371 55.8592 71.8529 55.779 71.1912C55.6931 70.475 56.2001 69.8247 56.9163 69.7388C57.8502 69.6242 58.469 69.5096 58.6666 69.4466C59.3542 69.226 60.0875 69.607 60.3081 70.2917C60.5287 70.9792 60.1506 71.7126 59.463 71.9332ZM35.0671 74.394C34.8522 74.8838 34.3738 75.176 33.8725 75.176C33.6977 75.176 33.5201 75.1388 33.3482 75.0643C27.4211 72.4631 19.5259 66.3813 15.1343 57.1225C12.4816 51.5277 11.2956 45.7553 11.6107 39.9657C11.9058 34.5485 13.5559 29.3433 16.3862 24.9088C18.9759 20.8523 22.5282 17.4977 26.6591 15.2088C31.045 12.7795 35.9236 11.5677 41.1489 11.6136C49.7344 11.6852 57.7843 15.1085 63.2359 21.0041C67.808 25.9515 70.0797 32.188 69.6299 38.5649C69.2718 43.6469 66.9686 47.646 62.9694 50.1298C59.3484 52.3757 55.6186 52.6393 54.9081 52.6679C54.8651 52.6679 54.4498 52.688 54.1862 52.688C51.8171 52.688 48.1674 51.903 45.0248 49.7001C42.4924 47.9239 39.4759 44.6266 39.4759 38.9889C39.4759 38.2669 40.0603 37.6825 40.7793 37.6825C41.5012 37.6825 42.0856 38.2669 42.0856 38.9889C42.0856 42.6127 43.5781 45.4975 46.5259 47.563C49.1729 49.4193 52.3069 50.0782 54.1891 50.0782C54.3638 50.0782 54.6904 50.0667 54.8021 50.061C55.2691 50.041 66.2495 49.4594 67.0287 38.3815C67.4269 32.7294 65.4016 27.1891 61.3222 22.7745C56.3577 17.4032 48.9982 14.2864 41.1317 14.2205C41.0486 14.2205 40.9684 14.2205 40.8853 14.2205C36.2043 14.2205 31.8442 15.3205 27.9253 17.492C24.1725 19.5718 20.9411 22.6227 18.5863 26.3125C15.9966 30.3689 14.4869 35.1387 14.2176 40.1061C13.9254 45.4574 15.0283 50.8058 17.4949 56.0024C21.5771 64.6138 28.905 70.2602 34.3996 72.6722C35.0556 72.9645 35.3564 73.7351 35.0671 74.394ZM42.9708 0C19.2395 0 0 19.2395 0 42.9708C0 66.7022 19.2366 85.9416 42.9708 85.9416C66.705 85.9416 85.9416 66.705 85.9416 42.9708C85.9416 19.2395 66.7022 0 42.9708 0Z" fill="#000000"/>
<path d="M101.411 53.8331V61.4103H102.792V58.3479H104.474C106.026 58.3479 106.983 57.4999 106.983 56.1048C106.983 54.6581 106.006 53.8302 104.284 53.8302H101.411V53.8331ZM104.431 57.0559H102.792V55.1623H104.388C105.25 55.1623 105.622 55.4602 105.622 56.0991C105.622 56.715 105.227 57.0559 104.431 57.0559ZM107.791 59.9063C107.791 60.8918 108.599 61.5621 109.65 61.5621C110.192 61.5621 110.83 61.3301 111.234 60.9576L111.223 61.4246H112.506V57.8666C112.506 56.7064 111.549 56.0045 110.134 56.0045C109.392 56.0045 108.765 56.2395 108.158 56.6863L108.624 57.6661C109.197 57.2708 109.644 57.1533 110.166 57.1533C110.845 57.1533 111.229 57.4512 111.24 57.7807L111.251 58.0585L109.753 58.1875C108.427 58.302 107.791 58.9094 107.791 59.9063ZM109.842 60.3532C109.384 60.3532 109.023 60.2157 109.023 59.8748C109.023 59.6084 109.238 59.3763 109.788 59.3133L111.246 59.1758V59.6227C111.246 59.9693 110.478 60.3532 109.842 60.3532ZM116.795 57.4799L117.422 56.354C117.061 56.1191 116.677 55.9902 116.316 55.9902C115.935 55.9902 115.445 56.1936 115.265 56.5431V56.1077H113.979V61.4103H115.265V58.4338C115.265 57.6374 115.531 57.2536 116.073 57.2536C116.273 57.2564 116.325 57.2765 116.795 57.4799ZM118.955 56.1191H118.382V57.3739H118.955V59.5854C118.955 60.8918 119.528 61.5592 120.688 61.5592C121.06 61.5592 121.516 61.4332 121.805 61.2413L121.401 60.0639C120.605 60.4792 120.252 60.2873 120.252 59.3076V57.371H121.55V56.1163H120.252V53.8302L118.958 54.3946V56.1191H118.955ZM122.951 56.1191V61.4103H124.237V58.7747C124.237 57.6374 124.79 57.2106 125.481 57.2106C125.907 57.2106 126.268 57.4455 126.268 58.3278V61.4103H127.555V58.1817C127.555 56.7666 126.896 55.9931 125.675 55.9931C125.197 55.9931 124.621 56.1736 124.24 56.546V56.122H122.951V56.1191ZM128.829 58.7976C128.829 60.4162 129.912 61.5621 131.445 61.5621C132.347 61.5621 133.038 61.2441 133.591 60.5423L132.539 59.8633C132.221 60.2157 131.932 60.3417 131.465 60.3417C130.732 60.3417 130.242 59.9493 130.124 59.2875H133.952V58.9151C133.952 57.1819 132.92 56.0017 131.399 56.0017C129.892 56.0017 128.829 57.1619 128.829 58.7976ZM130.182 58.2046C130.299 57.6088 130.754 57.1934 131.425 57.1934C132.095 57.1934 132.519 57.5859 132.637 58.2046H130.182ZM137.982 57.4799L138.61 56.354C138.246 56.1191 137.865 55.9902 137.504 55.9902C137.12 55.9902 136.63 56.1936 136.45 56.5431V56.1077H135.163V61.4103H136.45V58.4338C136.45 57.6374 136.716 57.2536 137.257 57.2536C137.464 57.2564 137.515 57.2765 137.982 57.4799ZM141.342 61.5822C142.801 61.5822 143.649 60.8918 143.649 59.8289C143.649 58.9352 143.096 58.4252 141.821 58.1703C140.904 58.0098 140.629 57.9039 140.629 57.6374C140.629 57.371 140.95 57.1905 141.523 57.1905C141.981 57.1905 142.394 57.308 142.938 57.6374L143.448 56.6262C142.938 56.2337 142.248 55.9988 141.557 55.9988C140.228 55.9988 139.389 56.6806 139.389 57.6689C139.389 58.4138 139.953 58.9466 140.953 59.1901C141.858 59.4136 142.42 59.3821 142.42 59.8375C142.42 60.1784 141.953 60.3933 141.529 60.3933C140.824 60.3933 140.454 60.2443 139.933 59.7974L139.125 60.6597C139.652 61.2212 140.503 61.5822 141.342 61.5822ZM148.796 55.2769C149.255 55.2769 149.647 54.8959 149.647 54.4404C149.647 53.962 149.263 53.5781 148.774 53.5781C148.318 53.5781 147.926 53.9706 147.926 54.4404C147.926 54.9074 148.318 55.2769 148.796 55.2769ZM148.161 61.4131H149.455V56.1191H148.161V61.4131ZM150.988 56.1191V61.4103H152.271V58.7747C152.271 57.6374 152.827 57.2106 153.518 57.2106C153.942 57.2106 154.305 57.4455 154.305 58.3278V61.4103H155.589V58.1817C155.589 56.7666 154.93 55.9931 153.707 55.9931C153.228 55.9931 152.652 56.1736 152.271 56.546V56.122H150.988V56.1191ZM160.694 56.1191H160.118V57.3739H160.694V59.5854C160.694 60.8918 161.267 61.5592 162.424 61.5592C162.796 61.5592 163.252 61.4332 163.541 61.2413L163.134 60.0639C162.338 60.4792 161.989 60.2873 161.989 59.3076V57.371H163.286V56.1163H161.989V53.8302L160.694 54.3946V56.1191ZM164.306 58.7976C164.306 60.4162 165.392 61.5621 166.922 61.5621C167.827 61.5621 168.514 61.2441 169.067 60.5423L168.016 59.8633C167.695 60.2157 167.409 60.3417 166.942 60.3417C166.208 60.3417 165.718 59.9493 165.604 59.2875H169.431V58.9151C169.431 57.1819 168.4 56.0017 166.879 56.0017C165.372 56.0017 164.306 57.1619 164.306 58.7976ZM165.658 58.2046C165.776 57.6088 166.231 57.1934 166.902 57.1934C167.572 57.1934 167.996 57.5859 168.113 58.2046H165.658ZM170.454 58.8005C170.454 60.3532 171.677 61.5621 173.261 61.5621C173.909 61.5621 174.367 61.4017 175.089 60.9261L174.674 59.7573C174.101 60.1928 173.791 60.3303 173.238 60.3303C172.387 60.3303 171.772 59.6714 171.772 58.7891C171.772 57.9067 172.419 57.2249 173.25 57.2249C173.826 57.2249 173.975 57.3109 174.559 57.7033L175.069 56.6205C174.462 56.185 173.952 56.0045 173.261 56.0045C171.677 56.0017 170.454 57.2249 170.454 58.8005ZM176.367 53.8331V61.4103H177.673V58.7747C177.673 57.6374 178.226 57.2106 178.916 57.2106C179.34 57.2106 179.704 57.4455 179.704 58.3278V61.4103H180.987V58.1817C180.987 56.7666 180.328 55.9931 179.108 55.9931C178.63 55.9931 178.054 56.1736 177.673 56.546V53.8359H176.367V53.8331ZM182.457 56.1191V61.4103H183.74V58.7747C183.74 57.6374 184.296 57.2106 184.987 57.2106C185.41 57.2106 185.774 57.4455 185.774 58.3278V61.4103H187.058V58.1817C187.058 56.7666 186.399 55.9931 185.178 55.9931C184.7 55.9931 184.124 56.1736 183.74 56.546V56.122H182.457V56.1191ZM188.338 58.7346C188.338 60.3303 189.559 61.5621 191.123 61.5621C192.718 61.5621 193.939 60.3532 193.939 58.7891C193.939 57.2249 192.695 56.0045 191.143 56.0045C189.602 56.0017 188.338 57.245 188.338 58.7346ZM189.665 58.7575C189.665 57.8838 190.292 57.2249 191.134 57.2249C191.996 57.2249 192.612 57.8838 192.612 58.7891C192.612 59.7058 191.996 60.3417 191.126 60.3417C190.26 60.3389 189.665 59.6914 189.665 58.7575ZM195.279 61.4131H196.597V53.8331H195.279V61.4131ZM197.938 58.7346C197.938 60.3303 199.161 61.5621 200.722 61.5621C202.318 61.5621 203.541 60.3532 203.541 58.7891C203.541 57.2249 202.298 56.0045 200.745 56.0045C199.201 56.0017 197.938 57.245 197.938 58.7346ZM199.264 58.7575C199.264 57.8838 199.892 57.2249 200.731 57.2249C201.593 57.2249 202.209 57.8838 202.209 58.7891C202.209 59.7058 201.593 60.3417 200.72 60.3417C199.86 60.3389 199.264 59.6914 199.264 58.7575ZM209.6 56.1191C209.024 56.1191 208.58 56.1822 208.282 56.3197C207.91 56.1077 207.475 55.9902 206.985 55.9902C205.644 55.9902 204.616 56.947 204.616 58.2018C204.616 58.9266 204.925 59.5539 205.412 59.9665C205.06 60.1698 204.851 60.4649 204.851 60.8803C204.851 61.5936 205.466 62.1121 206.741 62.0491L207.24 62.0262C207.879 61.9832 208.228 62.0262 208.228 62.3241C208.228 62.6965 207.664 62.857 206.962 62.8799C206.326 62.9028 205.75 62.7538 205.378 62.39L204.624 63.2637C205.103 63.7737 205.962 64.0487 206.985 64.0487C208.463 64.0487 209.44 63.4414 209.44 62.3585C209.44 61.4446 208.772 60.9118 207.463 61.0379C206.4 61.1467 206.005 61.0694 206.005 60.8173C206.005 60.6024 206.22 60.5079 206.91 60.5193H206.973C208.334 60.5193 209.354 59.5425 209.354 58.2132C209.354 57.7663 209.239 57.3739 209.024 57.033H209.6V56.1191ZM206.985 59.3305C206.357 59.3305 205.91 58.9151 205.91 58.2018C205.91 57.5429 206.357 57.139 206.996 57.139C207.632 57.139 208.059 57.5314 208.059 58.2218C208.059 58.9122 207.624 59.3305 206.985 59.3305ZM216 56.1191H214.616L213.362 59.637L211.958 56.1191H210.557L212.726 61.4131C212.514 61.9689 212.388 62.6679 211.462 62.3499L211.078 63.5617C211.875 63.8768 212.969 63.7937 213.502 62.5533L216 56.1191Z" fill="#000000"/>
<path d="M198.803 21.917V43.8894H216V38.9993H203.799V35.0346H216V30.3164H203.839V26.8013H216V21.917H198.803Z" fill="#000000"/>
<path d="M157.711 23.0436C157.711 26.1175 157.711 43.0079 157.714 43.6266L157.717 43.9045H162.831V21.9521H157.714V23.0436H157.711Z" fill="#000000"/>
<path d="M101.411 27.0667H109.286C109.286 33.1771 109.286 42.9315 109.289 43.6391L109.292 43.9169H114.406V27.0667L122.281 27.0638V21.9531H101.411V27.0667Z" fill="#000000"/>
<path d="M140.452 30.8127L137.467 26.6216H140.079C142.6 26.6216 143.156 27.6271 143.156 28.7128C143.156 29.9475 142.271 30.6379 140.452 30.8127ZM143.571 35.1814C144.955 34.5884 146.164 33.6459 146.932 32.5544C147.668 31.5059 148.043 30.2225 148.043 28.7415C148.043 27.7503 147.742 26.4468 147.273 25.6103C146.788 24.7452 144.858 21.9492 140.744 21.9492H130.803V25.4585L134.659 30.8642H130.803V43.9188H135.619V35.4449H137.956L144.018 43.9188H149.831L149.166 42.9963C147.951 41.309 145.078 37.3099 143.571 35.1814Z" fill="#000000"/>
<path d="M183.906 38.8852C183.568 38.9568 183.242 38.9969 182.935 38.9998C181.784 39.0112 180.787 39.0112 179.148 39.0112H177.561V35.0407C177.578 35.0407 177.595 35.0379 177.613 35.0379L180.159 35.035C181.274 35.035 181.864 35.0379 182.571 35.0465C183.242 35.0551 184.073 35.0637 184.648 35.3644C185.19 35.6481 185.416 35.9603 185.511 36.5619C185.708 37.851 185.184 38.613 183.906 38.8852ZM177.561 26.819L179.833 26.8133C180.855 26.8133 181.354 26.8161 181.964 26.8276C182.288 26.8362 182.66 26.8591 182.958 26.9937C183.362 27.1771 183.709 27.5896 183.803 27.9964C183.881 28.3373 183.881 28.6982 183.806 29.0936C183.7 29.6264 183.505 29.9072 183.081 30.122C182.869 30.228 182.471 30.3025 182.228 30.3082C181.758 30.3168 181.102 30.3168 180.377 30.3168C179.644 30.3168 177.561 30.3082 177.561 30.3082V26.819ZM188.355 32.0156C188.272 31.9354 188.189 31.8552 188.109 31.775L188.186 31.5916C188.301 31.3338 188.415 31.0674 188.507 30.7895C188.937 29.4717 189.051 28.2857 188.865 27.1628C188.501 24.9827 187.576 23.5962 185.863 22.6709C184.923 22.161 183.325 21.8945 182.233 21.8945H172.459V43.907L172.728 43.9214C172.78 43.9242 172.877 43.9242 172.877 43.9242L182.915 43.9214C183.726 43.9214 184.551 43.8125 185.362 43.6034C187.098 43.1536 188.39 42.3372 189.315 41.1111C189.994 40.2116 190.404 39.143 190.538 37.9341C190.756 35.9861 190.289 34.2787 189.152 32.8635C188.914 32.5599 188.636 32.2877 188.355 32.0156Z" fill="#000000"/>
</svg>
