<svg id="Layer_1" data-name="Layer 1" xmlns="http://www.w3.org/2000/svg" viewBox="0 0 328.66 135.91"><defs><style>.cls-1,.cls-2,.cls-3,.cls-4{fill:none;stroke:#231f20;}.cls-1{stroke-width:0.86px;}.cls-2{stroke-width:0.26px;}.cls-3{stroke-width:0.32px;}.cls-4{stroke-width:0.29px;}.cls-5{font-size:100.93px;font-family:JerseyM54, Jersey M54;letter-spacing:0.05em;}</style></defs><path class="cls-1" d="M88.22,81.15" transform="translate(-8.3 -5.34)"/><path d="M172.85,67.6h35.49V82.81H172.85Z" transform="translate(-8.3 -5.34)"/><path d="M118,19.86l-7.51,12c-9.19-7.06-21.82-12.28-34.31-12.28a54.52,54.52,0,1,0,0,109c12.69,0,25.63-5.2,34.89-12.47L118,126.73A67.8,67.8,0,1,1,76.25,5.5C91.25,5.5,106.75,11.62,118,19.86Z" transform="translate(-8.3 -5.34)"/><path class="cls-2" d="M111.05,116.12c-9.26,7.27-22.2,12.47-34.89,12.47a54.52,54.52,0,1,1,0-109c12.49,0,25.12,5.22,34.31,12.28" transform="translate(-8.3 -5.34)"/><path class="cls-3" d="M118,126.73A67.8,67.8,0,1,1,76.25,5.5c15,0,30.5,6.12,41.73,14.36" transform="translate(-8.3 -5.34)"/><line class="cls-4" x1="102.17" y1="26.5" x2="109.68" y2="14.52"/><line class="cls-4" x1="102.75" y1="110.78" x2="109.68" y2="121.4"/><text class="cls-5" transform="translate(47.54 107.89)">82</text><text class="cls-5" transform="translate(215.87 107.89)">co</text></svg>