<svg width="318" height="68" viewBox="0 0 318 68" fill="none" xmlns="http://www.w3.org/2000/svg">
<path d="M307.498 11.7859C304.699 11.7859 300.802 12.5653 298.074 16.3207L297.082 15.5413C297.153 15.435 297.188 15.2933 297.259 15.187C298.074 13.5219 298.641 12.4591 298.641 5.08999V1.08659H291.449V40.0577H298.641V27.9412C298.641 21.7767 301.191 18.0922 305.478 18.0922C308.667 18.0922 310.651 20.2178 310.651 23.6544V40.0222H317.843V22.1664C317.878 15.8956 313.804 11.7859 307.498 11.7859Z" fill="#241F21"/>
<path d="M0.12207 1.51173V8.10138H11.6717V40.0577H19.3596V8.10138H30.8384V1.51173H0.12207Z" fill="#241F21"/>
<path d="M48.5878 13.9116C46.4267 12.5299 43.8405 11.8213 40.8645 11.8213C38.2074 11.8213 35.7628 12.4591 33.6371 13.6636C31.5114 14.9036 29.8463 16.6042 28.6772 18.7653C27.508 20.9264 26.9058 23.4064 26.9058 26.1698C26.9058 28.9332 27.508 31.4132 28.6772 33.5743C29.8463 35.7708 31.5469 37.4714 33.708 38.676C35.8691 39.8805 38.3845 40.4828 41.2188 40.4828C43.5216 40.4828 45.6119 40.0931 47.3833 39.2782C49.1901 38.4988 50.6781 37.3651 51.8118 35.9126C52.9455 34.46 53.7249 32.7949 54.0792 30.9172L54.1147 30.7755H46.8164L46.781 30.8817C46.4976 31.98 45.8599 32.8657 44.8679 33.5034C43.8759 34.1766 42.6005 34.4954 41.1125 34.4954C39.6954 34.4954 38.4199 34.1766 37.3217 33.5034C36.2234 32.8303 35.3731 31.8737 34.7708 30.5983C34.3811 29.748 34.0977 28.7915 33.956 27.7286H54.1855V27.6223C54.6107 24.7172 54.3272 22.0247 53.3352 19.6156C52.3432 17.2419 50.749 15.2933 48.5878 13.9116ZM34.2748 22.3435C34.3811 21.9184 34.5228 21.5287 34.6645 21.1744C35.196 19.899 36.0108 18.9424 37.0382 18.3401C38.0657 17.7024 39.3411 17.3836 40.8645 17.3836C41.9982 17.3836 43.061 17.5961 43.9467 18.0213C44.8325 18.4464 45.5764 19.0487 46.0724 19.8281C46.533 20.5721 46.8164 21.387 46.8519 22.3435H34.2748Z" fill="#241F21"/>
<path d="M97.3374 1.51173H66.6211V8.10138H78.1353V40.0577H85.8232V8.10138H97.3374V1.51173Z" fill="#241F21"/>
<path d="M163.305 12.2465H156.113V40.0577H163.305V12.2465Z" fill="#241F21"/>
<path d="M163.411 0.69688H155.9V7.81796H163.411V0.69688Z" fill="#241F21"/>
<path d="M228.245 13.6282C226.048 12.4236 223.533 11.8214 220.734 11.8214C217.935 11.8214 215.42 12.4236 213.223 13.6282C211.027 14.8328 209.291 16.5333 208.051 18.6944C206.811 20.8556 206.173 23.3355 206.173 26.0989C206.173 28.8624 206.811 31.3423 208.051 33.5035C209.291 35.7 211.062 37.4006 213.259 38.6406C215.49 39.8805 217.97 40.4828 220.734 40.4828C223.462 40.4828 225.977 39.8451 228.209 38.6406C230.441 37.4006 232.177 35.7 233.417 33.5035C234.657 31.3069 235.295 28.8269 235.295 26.0989C235.295 23.371 234.657 20.8556 233.417 18.6944C232.177 16.5333 230.441 14.8328 228.245 13.6282ZM227.111 30.3858C226.473 31.6258 225.623 32.5823 224.525 33.2909C223.426 33.9994 222.151 34.3537 220.734 34.3537C219.352 34.3537 218.077 33.9994 216.978 33.2909C215.88 32.5823 214.994 31.6258 214.357 30.3858C213.719 29.1458 213.4 27.6932 213.4 26.0989C213.4 24.5047 213.719 23.0875 214.357 21.8476C214.994 20.6076 215.845 19.651 216.978 18.9779C218.077 18.3047 219.352 17.9505 220.734 17.9505C222.151 17.9505 223.426 18.3047 224.525 18.9779C225.623 19.651 226.473 20.643 227.111 21.8476C227.749 23.0875 228.068 24.5047 228.068 26.0989C228.068 27.6932 227.749 29.1458 227.111 30.3858Z" fill="#241F21"/>
<path d="M285.922 34.0703C285.39 34.1766 284.894 34.2474 284.398 34.2474C283.265 34.2474 282.379 33.8932 281.741 33.1846C281.103 32.476 280.785 31.4486 280.785 30.1378V18.1276H287.303V12.2465H280.785V5.51514H273.593V12.2465H269.164V18.1276H273.593V30.7401C273.593 32.7949 274.018 34.5663 274.833 36.0189C275.647 37.4714 276.852 38.6051 278.375 39.3491C279.899 40.0931 281.599 40.4828 283.477 40.4828C284.221 40.4828 284.894 40.412 285.567 40.3057C286.24 40.1994 286.878 40.0222 287.445 39.7388L287.516 39.7034V33.6452L287.374 33.6806C286.949 33.8223 286.488 33.964 285.922 34.0703Z" fill="#241F21"/>
<path d="M140.134 11.7859C137.336 11.7859 133.438 12.5653 130.711 16.3207L129.719 15.5413C129.789 15.435 129.825 15.2933 129.896 15.187C130.711 13.5219 131.277 12.4591 131.277 5.08999V1.08659H124.085V40.0577H131.277V27.9412C131.277 21.7767 133.828 18.0922 138.115 18.0922C141.304 18.0922 143.288 20.2178 143.288 23.6544V40.0222H150.479V22.1664C150.515 15.8956 146.441 11.7859 140.134 11.7859Z" fill="#241F21"/>
<path d="M202.559 1.61803L202.524 1.68889C201.603 3.24773 200.859 4.52315 200.256 5.51514C199.619 6.57799 199.158 7.39284 198.839 7.92426C196.182 12.4591 194.623 16.2853 194.552 18.4819H192.71C192.639 16.3208 191.116 12.4591 188.423 7.92426C188.104 7.39284 187.644 6.61341 187.042 5.55057C186.439 4.52315 185.695 3.24773 184.774 1.68889L184.739 1.61803H175.775L189.699 24.6818V40.1285H197.599V24.6818L211.558 1.61803H202.559Z" fill="#241F21"/>
<path d="M11.6362 53.0598V67.6563H21.3436V65.2471H14.4705V53.0598H11.6362Z" fill="#241F21"/>
<path d="M27.0828 53.0598H24.2485V67.6917H27.0828V53.0598Z" fill="#241F21"/>
<path d="M31.3696 53.0598V67.6563H34.2039V61.2792H39.9433V58.8701H34.2039V55.469H41.2895V53.0598H31.3696Z" fill="#241F21"/>
<path d="M44.5137 53.0598V67.6563H54.5044V65.2471H47.3479V61.2792H53.0519V58.8701H47.3479V55.469H54.4336V53.0598H44.5137Z" fill="#241F21"/>
<path d="M67.2942 61.9877H63.2554V59.7912H67.2942V55.7524H69.5262V59.7558H73.565V61.9877H69.5262V66.0266H67.2942V61.9877Z" fill="#241F21"/>
<path d="M81.3237 53.0598H84.3351L86.4963 60.854C87.1694 63.2277 87.382 64.7511 87.382 64.7511C87.382 64.7511 87.63 63.2277 88.2677 60.9249L90.3934 53.0598H93.6173L95.743 60.854C96.3807 63.2277 96.6287 64.7511 96.6287 64.7511C96.6287 64.7511 96.8767 63.2277 97.5144 60.9249L99.6756 53.0598H102.581L98.1521 67.6563H94.9636L92.8379 60.2163C92.1648 57.8426 91.9522 56.3192 91.9522 56.3192C91.9522 56.3192 91.7042 57.8426 91.0665 60.1455L88.9408 67.6563H85.7523L81.3237 53.0598Z" fill="#241F21"/>
<path d="M105.557 53.0598V67.6563H115.583V65.2471H108.426V61.2792H114.13V58.8701H108.426V55.469H115.477V53.0598H105.557Z" fill="#241F21"/>
<path d="M119.161 53.0598V67.6563H128.868V65.2471H121.995V53.0598H119.161Z" fill="#241F21"/>
<path d="M131.773 53.0598V67.6563H141.481V65.2471H134.608V53.0598H131.773Z" fill="#241F21"/>
<path d="M150.267 65.2471C151.649 65.2471 152.676 64.3969 152.676 63.1569C152.676 61.9523 151.684 61.102 150.267 61.102H147.22V65.2471H150.267ZM150.054 58.8346C151.188 58.8346 152.003 58.1615 152.003 57.1341C152.003 56.1421 151.153 55.469 150.054 55.469H147.22V58.8346H150.054ZM144.386 53.0598H150.515C153.03 53.0598 154.766 54.5124 154.766 56.7444C154.766 58.1261 153.845 59.3306 152.676 59.7558C154.27 60.1809 155.51 61.598 155.51 63.3694C155.51 65.9203 153.455 67.6563 150.55 67.6563H144.386V53.0598V53.0598Z" fill="#241F21"/>
<path d="M158.628 53.0598V67.6563H168.654V65.2471H161.498V61.2792H167.202V58.8701H161.498V55.469H168.548V53.0598H158.628Z" fill="#241F21"/>
<path d="M175.067 53.0598H172.232V67.6917H175.067V53.0598Z" fill="#241F21"/>
<path d="M179.354 53.0598H182.861L187.042 60.5706C188.246 62.7317 188.849 64.1489 188.849 64.1489C188.849 64.1489 188.707 62.59 188.707 60.2163V53.0598H191.541V67.6563H188.069L183.818 60.1455C182.613 57.9844 182.011 56.5672 182.011 56.5672C182.011 56.5672 182.153 58.1261 182.153 60.4998V67.6563H179.318V53.0598H179.354Z" fill="#241F21"/>
<path d="M195.19 60.358C195.19 55.8587 198.131 52.8827 202.453 52.8827C206.102 52.8827 208.511 54.9729 208.83 58.0552H205.961C205.713 56.3901 204.402 55.2918 202.418 55.2918C199.796 55.2918 198.025 57.3112 198.025 60.358C198.025 63.4403 199.832 65.4243 202.489 65.4243C204.721 65.4243 206.173 64.078 206.315 62.1295H201.993V59.862H209.007V67.6563H206.386V65.9911C205.748 67.054 204.154 67.8334 202.382 67.8334C198.45 67.8334 195.19 65.1763 195.19 60.358Z" fill="#241F21"/>
<path d="M218.112 62.7317H220.876C221.088 64.5386 222.328 65.3889 223.923 65.3889C225.375 65.3889 226.367 64.7157 226.367 63.6174C226.367 60.5352 218.573 62.3066 218.573 56.9924C218.573 54.5124 220.769 52.8827 223.568 52.8827C226.721 52.8827 228.776 54.5478 229.095 57.3466H226.332C226.048 56.0712 225.021 55.2918 223.568 55.2918C222.257 55.2918 221.407 55.8941 221.407 56.8506C221.407 59.5078 229.201 57.7718 229.201 63.4403C229.201 66.0974 227.005 67.798 223.923 67.798C220.734 67.8334 218.431 66.0266 218.112 62.7317Z" fill="#241F21"/>
<path d="M232.354 62.3066V53.0598H235.189V62.3066C235.189 64.1489 236.464 65.4243 238.306 65.4243C240.149 65.4243 241.424 64.1489 241.424 62.3066V53.0598H244.294V62.3066C244.294 65.6014 241.885 67.8334 238.306 67.8334C234.728 67.8334 232.354 65.6014 232.354 62.3066Z" fill="#241F21"/>
<path d="M254.072 59.5432C255.489 59.5432 256.375 58.7283 256.375 57.4884C256.375 56.2484 255.489 55.4689 254.072 55.4689H251.238V59.5432H254.072ZM248.403 53.0598H254.355C257.296 53.0598 259.209 54.8312 259.209 57.5238C259.209 60.2163 257.296 61.9877 254.355 61.9877H251.238V67.6563H248.403V53.0598Z" fill="#241F21"/>
<path d="M268.137 59.5432C269.554 59.5432 270.44 58.7283 270.44 57.4884C270.44 56.2484 269.554 55.4689 268.137 55.4689H265.303V59.5432H268.137ZM262.504 53.0598H268.456C271.396 53.0598 273.31 54.8312 273.31 57.5238C273.31 60.2163 271.396 61.9877 268.456 61.9877H265.338V67.6563H262.504V53.0598Z" fill="#241F21"/>
<path d="M282.946 65.4243C285.603 65.4243 287.481 63.2632 287.481 60.358C287.481 57.4529 285.567 55.2918 282.946 55.2918C280.253 55.2918 278.34 57.4529 278.34 60.358C278.34 63.2632 280.253 65.4243 282.946 65.4243ZM275.506 60.358C275.506 56.0358 278.659 52.8827 282.946 52.8827C287.197 52.8827 290.35 56.0358 290.35 60.358C290.35 64.6803 287.162 67.8334 282.946 67.8334C278.659 67.8334 275.506 64.6803 275.506 60.358Z" fill="#241F21"/>
<path d="M298.747 59.2598C300.129 59.2598 301.014 58.4803 301.014 57.3466C301.014 56.2129 300.129 55.4689 298.747 55.4689H296.373V59.2598H298.747V59.2598ZM293.539 53.0598H299.243C302.006 53.0598 303.884 54.7604 303.884 57.3466C303.884 59.0118 302.963 60.4289 301.475 61.1729L305.372 67.6563H302.077L298.676 61.6689H296.409V67.6563H293.574V53.0598H293.539Z" fill="#241F21"/>
<path d="M306.222 53.0598V55.469H310.651V67.6563H313.485V55.469H317.878V53.0598H306.222Z" fill="#241F21"/>
<path d="M111.332 27.6932V27.9412C111.332 32.0154 108.71 34.8851 104.99 34.8851C102.545 34.8851 101.057 33.7869 101.057 31.98C101.057 29.8543 102.581 28.8269 106.442 28.3309L111.332 27.6932ZM106.301 11.7859C99.8174 11.7859 94.8929 15.7539 94.078 21.7058L94.0426 21.883H101.199L101.235 21.7413C101.589 19.0133 103.467 17.4544 106.301 17.4544C109.418 17.4544 111.332 19.155 111.332 21.9184V22.379L106.124 22.9104C97.798 23.7961 93.9009 26.7366 93.9009 32.228C93.9009 37.1525 97.798 40.4828 103.608 40.4828C106.159 40.4828 109.241 39.3491 110.375 36.2314H111.296V40.0577H118.559V22.875C118.594 16.0373 113.882 11.7859 106.301 11.7859Z" fill="#241F21"/>
<path d="M249.537 40.5182C254.391 40.5182 256.268 38.8177 257.189 36.2668H258.394V40.0931H265.338V12.2465H258.394V24.4692C258.394 30.74 255.772 34.46 251.45 34.46C248.226 34.46 246.171 32.3343 246.171 28.7206V12.2465H239.192V30.2086C239.192 36.692 243.514 40.5182 249.537 40.5182Z" fill="#241F21"/>
</svg>
