<svg width="252" height="32" viewBox="0 0 252 32" fill="none" xmlns="http://www.w3.org/2000/svg">
<g clip-path="url(#clip0_4864_3037)">
<path d="M0.5 6.99751H3.90153L4.12061 3.65311H9.75119V22.0497L7.21204 22.2588V24.7418H15.9448V22.2588L13.4075 22.0497V3.65311H19.0381L19.2555 6.99751H22.6587V0.545654H0.5V6.99751Z" fill="#000000"/>
<path d="M34.7556 6.90552C34.7502 6.90552 34.7449 6.9073 34.7395 6.9073L34.7377 6.90552C34.6043 6.90627 34.471 6.91452 34.3385 6.93022H34.3346C33.4064 7.03441 32.2394 7.4909 31.1667 8.3168C30.3496 8.96685 29.6411 9.74098 29.0674 10.6106L28.7954 7.45905H23.1237V9.94212L25.6611 10.1505V22.0494L23.1221 22.2578V24.7422H31.7514V22.2588L29.2141 22.0504V13.948C30.1738 12.3563 31.6433 11.0175 32.9291 10.6179C33.1417 11.1093 33.4965 11.5269 33.9486 11.8179C34.4006 12.1088 34.9296 12.2599 35.4683 12.252C36.8029 12.252 37.9164 11.06 37.9164 9.6891C37.9164 8.18776 36.8474 6.90552 34.7556 6.90552Z" fill="#000000"/>
<path d="M54.655 14.1301V14.0947C54.655 9.63604 51.8343 6.97437 46.8203 6.97437C44.3951 7.05563 42.1394 7.63045 40.2702 8.78514V12.1298C42.4388 10.9448 44.4665 10.2939 46.8203 10.2939C49.6747 10.2939 51.1021 11.8485 51.1021 14.1301V14.5544C49.4231 14.0953 47.6921 13.8502 45.9507 13.8251C41.7221 13.8251 38.4973 16.1756 38.4973 19.481V19.4862C38.4973 22.7706 41.423 25.19 44.8693 25.19C47.7948 25.19 50.1274 23.6688 51.2423 22.2858L51.4507 24.7408H57.1939V22.2589L54.6549 22.0505L54.655 14.1301ZM51.1021 19.3841C50.1629 20.4894 47.8287 21.8724 45.1489 21.8724C43.5471 21.8724 42.0842 21.0075 42.0842 19.4863C42.0912 17.9141 43.841 16.6815 46.5244 16.6815C48.0722 16.696 49.6112 16.9125 51.1021 17.3253V19.3841Z" fill="#000000"/>
<path d="M63.6354 5.00623C64.2903 5.0034 64.9175 4.74381 65.3804 4.28401C65.8433 3.82421 66.1044 3.20145 66.1068 2.55143C66.1049 2.2314 66.0395 1.91487 65.9142 1.61997C65.7889 1.32507 65.6063 1.05759 65.3767 0.832851C65.1472 0.608108 64.8752 0.430515 64.5764 0.310237C64.2776 0.18996 63.9578 0.129363 63.6354 0.131913C63.3146 0.129819 62.9966 0.190961 62.6998 0.311791C62.403 0.432621 62.1334 0.610736 61.9064 0.835806C61.6795 1.06088 61.4999 1.32842 61.378 1.62292C61.256 1.91743 61.1942 2.23303 61.1961 2.55143C61.1936 2.87169 61.2546 3.1893 61.3759 3.48608C61.4972 3.78287 61.6762 4.05301 61.9028 4.28102C62.1294 4.50904 62.399 4.69046 62.6963 4.8149C62.9936 4.93934 63.3127 5.00436 63.6354 5.00623Z" fill="#000000"/>
<path d="M65.606 7.45898H59.5156V9.94206L62.053 10.1509V22.0496L59.5156 22.2587V24.7417H68.1432V22.2587L65.606 22.0496V7.45898Z" fill="#000000"/>
<path d="M75.105 19.6641V0.545654H69.0146V3.02873L71.5536 3.23933V19.3157C71.5536 23.0826 73.6776 25.1557 77.2982 25.1557C77.7117 25.1538 78.1246 25.1212 78.5332 25.0582V21.9704C78.1942 22.023 77.8517 22.0496 77.5086 22.0499C76.0101 22.0499 75.105 21.116 75.105 19.6641Z" fill="#000000"/>
<path d="M95.2643 21.6344H87.0502V8.08344V3.23919L89.5892 3.02873V0.545654H80.8547V3.02873L83.3939 3.23919V22.1153L80.8547 22.2588V24.7418H98.8869V18.2897H95.4835L95.2643 21.6344Z" fill="#000000"/>
<path d="M105.328 5.00623C105.983 5.00341 106.61 4.74381 107.073 4.28401C107.536 3.82421 107.797 3.20145 107.799 2.55143C107.798 2.23139 107.732 1.91486 107.607 1.61995C107.482 1.32504 107.299 1.05756 107.069 0.832809C106.84 0.608063 106.568 0.43047 106.269 0.3102C105.97 0.18993 105.65 0.129345 105.328 0.131914C105.007 0.12982 104.689 0.190962 104.392 0.311792C104.096 0.432622 103.826 0.610737 103.599 0.835807C103.372 1.06088 103.193 1.32842 103.071 1.62293C102.949 1.91743 102.887 2.23304 102.889 2.55143C102.886 2.87169 102.947 3.1893 103.069 3.48609C103.19 3.78287 103.369 4.05301 103.595 4.28102C103.822 4.50904 104.092 4.69046 104.389 4.81491C104.686 4.93935 105.005 5.00436 105.328 5.00623Z" fill="#000000"/>
<path d="M107.299 7.45898H101.208V9.94206L103.746 10.1509V22.0496L101.208 22.2587V24.7417H109.836V22.2587L107.299 22.0496V7.45898Z" fill="#000000"/>
<path d="M117.006 2.67871H113.455V7.45911H110.707V10.3598H113.455V19.3157C113.455 23.0827 115.579 25.1557 119.201 25.1557C120.221 25.1364 121.231 24.9611 122.197 24.6358V21.4432C121.324 21.8472 120.372 22.0544 119.41 22.0499C117.913 22.0499 117.006 21.1161 117.006 19.6642V10.3598H122.197V7.45911H117.006V2.67871Z" fill="#000000"/>
<path d="M132.69 6.83691C127.501 6.83691 123.356 10.7773 123.356 16.1343C123.356 21.2841 127.187 25.4336 133.178 25.4336V25.4283C135.602 25.3484 137.857 24.7735 139.727 23.6189V20.2744C137.558 21.4591 135.53 22.1497 133.178 22.1497C129.939 22.1497 127.676 20.3527 127.083 17.6575H141.71C141.816 17.0053 141.874 16.3462 141.883 15.6855C141.882 10.8459 138.087 6.83691 132.69 6.83691ZM127.048 14.7529C127.606 12.0223 129.764 10.1212 132.69 10.1212C135.788 10.1212 137.739 11.987 138.226 14.7529H127.048Z" fill="#000000"/>
<path d="M168.758 8.35937C170.213 8.15412 171.172 6.84017 170.922 5.10516C170.486 2.05084 165.848 -0.713537 159.608 0.165503C159.565 0.172499 159.526 0.179643 159.483 0.186638L159.485 0.191996H159.483V0.186638C153.528 1.17001 149.229 6.02647 149.034 12.2414C149.029 12.3883 149.013 12.5297 149.013 12.6782C149.013 19.8671 154.48 25.3642 161.725 25.3642C164.893 25.3642 168.48 24.0502 170.812 21.8377V11.4348H160.887V14.8218H167.155V20.1452C165.764 21.2152 163.848 21.9067 161.725 21.9067C156.57 21.9067 152.705 17.6214 152.705 12.6447C152.705 12.5084 152.72 12.3756 152.725 12.2414C152.903 8.01808 155.855 4.42422 159.977 3.6196L159.973 3.61603L159.975 3.61246L159.977 3.6196C162.847 3.21625 164.976 3.87947 166.063 4.65239C165.753 5.11092 165.635 5.67176 165.735 6.2152C165.948 7.70135 167.218 8.57682 168.758 8.35937Z" fill="#000000"/>
<path d="M185.638 6.90552C185.633 6.90552 185.628 6.9073 185.622 6.9073C185.62 6.9073 185.62 6.90552 185.619 6.90552C185.486 6.90621 185.353 6.91446 185.222 6.93022H185.218C184.288 7.03441 183.123 7.4909 182.048 8.3168C181.231 8.96731 180.523 9.74137 179.949 10.6106L179.676 7.45905H174.005V9.94212L176.543 10.1505V22.0494L174.005 22.2578V24.7422H182.634V22.2588L180.095 22.0504V13.948C181.055 12.3563 182.524 11.0175 183.812 10.6179C184.024 11.109 184.379 11.5266 184.83 11.8175C185.282 12.1084 185.811 12.2596 186.349 12.252C187.685 12.252 188.799 11.06 188.799 9.6891C188.799 8.18776 187.73 6.90552 185.638 6.90552Z" fill="#000000"/>
<path d="M198.436 6.83701C196.583 6.83716 194.772 7.38265 193.231 8.40451C191.691 9.42636 190.49 10.8787 189.781 12.5778C189.072 14.277 188.887 16.1466 189.249 17.9503C189.61 19.754 190.503 21.4107 191.813 22.711C193.123 24.0113 194.792 24.8967 196.61 25.2553C198.427 25.6139 200.311 25.4296 202.022 24.7256C203.734 24.0217 205.197 22.8297 206.226 21.3005C207.255 19.7712 207.805 17.9734 207.804 16.1344C207.81 14.9118 207.571 13.7002 207.102 12.5696C206.633 11.4391 205.943 10.4119 205.072 9.54747C204.201 8.68303 203.166 7.99844 202.027 7.53322C200.888 7.068 199.667 6.83138 198.436 6.83701ZM198.436 22.0114C195.198 22.0114 192.655 19.2807 192.655 16.1007C192.655 12.9208 195.198 10.2591 198.436 10.2591C201.641 10.2591 204.251 12.9209 204.251 16.1007C204.251 19.2805 201.641 22.0111 198.436 22.0111V22.0114Z" fill="#000000"/>
<path d="M227.957 7.45898H221.865V9.94206L224.404 10.1504V18.1039C223.533 20.0405 220.92 21.873 218.763 21.873C216.045 21.873 214.654 20.005 214.654 17.3099V7.45898H208.563V9.94206L211.101 10.1504V17.794C211.101 22.0458 213.678 25.2258 217.927 25.2258C219.253 25.211 220.556 24.8796 221.726 24.2596C222.896 23.6396 223.898 22.7492 224.648 21.6637L224.821 24.7412H230.494V22.2587L227.957 22.0504L227.957 7.45898Z" fill="#000000"/>
<path d="M243.259 6.94116C240.821 6.94116 238.384 8.08186 237.129 9.87894L236.887 7.45927H231.075V9.94234L233.614 10.1507V29.3082L231.075 29.5188V32.0001H239.702V29.5188L237.165 29.3082V22.3559C238.418 24.1192 240.821 25.2953 243.259 25.2953C248.134 25.2953 251.651 20.9747 251.651 16.1004C251.651 11.2261 248.134 6.94116 243.259 6.94116ZM242.598 21.8734C241.523 21.8785 240.462 21.6229 239.509 21.1288C238.556 20.6347 237.739 19.9171 237.129 19.0383V13.1966C237.73 12.3167 238.54 11.5976 239.488 11.1033C240.435 10.609 241.491 10.3548 242.562 10.3633C245.663 10.3633 248.1 12.9895 248.1 16.1004C248.1 19.2113 245.696 21.8732 242.598 21.8732V21.8734Z" fill="#000000"/>
</g>
<defs>
<clipPath id="clip0_4864_3037">
<rect width="251.152" height="32" fill="white" transform="translate(0.5)"/>
</clipPath>
</defs>
</svg>
