<svg xmlns="http://www.w3.org/2000/svg" version="1.1" viewBox="0 0 188 73" class="fill-black w-auto h-[37px] lg:h-[48px]"><path class="transition-all" d="M21.8 33.8c0 4.8-1.5 6.7-5.4 7.1l-2.7.3V28.5l2.6-.3c2-.2 3.3.1 4.2.8.9.9 1.3 2.5 1.3 4.8zm-2.6-16.7L0 19.1V73l13.7-1.4v-19l5.2-.5c11.3-1.2 17.3-7.8 17.3-19.3 0-5.5-1.6-9.8-4.6-12.6-3-2.6-7.2-3.7-12.4-3.1zM53.6 13.5 40 14.9v54l29.9-3.1V53.6l-16.3 1.7V13.5zM96.9 40.8l-6.8.7L93.5 27l3.4 13.8zm-9.1-31-16 55.7 13.1-1.4 2.5-10.8L99.6 52l2.6 10.3 14-1.4L101 8.4 87.8 9.8zM113.1 19.4l10.1-1v41.7l13.6-1.4V17l10.3-1.1V3.7l-34 3.5v12.2zM173.6 27.8c0 13.5-2 16.3-5.6 16.7-1.7.2-2.4-.3-2.8-.7-1.7-1.6-2.5-6.1-2.5-14.6 0-14.9 2.7-16.5 5.5-16.8h.7c.9 0 1.6.2 2.1.7 1.8 1.5 2.6 6.2 2.6 14.7M168 .7c-9 .9-19.7 6.8-19.7 29.7 0 10.6 2.3 18.1 6.9 22.2 2.8 2.5 6.3 3.7 10.6 3.7l2.5-.1c9-.9 19.7-6.8 19.7-29.6 0-10.7-2.3-18.1-6.9-22.3A16 16 0 0 0 168 .7"></path></svg>