<svg width="129" height="16" viewBox="0 0 129 16" fill="none" xmlns="http://www.w3.org/2000/svg">
<path d="M0.737793 0V4.53179H8.22912V16H13.1617V4.53179H20.6684V0H0.737793Z" fill="#000000"/>
<path d="M102.457 0V5.54913H93.9172V0H89V16H93.9172V10.0809H102.457V16H107.389V0H102.457Z" fill="#000000"/>
<path d="M50.6183 0H45.7012V15.9846H50.6183V0Z" fill="#000000"/>
<path d="M55.15 7.95376C56.5527 7.95376 57.8937 7.42967 58.9264 6.4894L65.9399 0H58.649L50.6182 7.95376L58.911 16H65.9399L58.911 9.44894C57.8937 8.49326 56.5527 7.95376 55.15 7.95376Z" fill="#000000"/>
<path d="M77.501 0H75.2814L67.2197 15.9846H72.5839L73.6321 13.8882L75.8825 9.4027L76.6224 7.90751C77.2082 6.75144 77.501 5.47206 77.501 4.17726C77.501 5.47206 77.7939 6.75144 78.3797 7.90751L81.37 13.8882L82.4182 15.9846H87.8132L79.7515 0H77.501Z" fill="#000000"/>
<path d="M120.938 0H116.468L108.406 15.9846H113.77L114.819 13.8882L117.069 9.4027L117.809 7.90751C118.395 6.75144 118.688 5.47206 118.688 4.17726C118.688 5.47206 118.98 6.75144 119.566 7.90751L122.557 13.8882L123.605 15.9846H129L120.938 0Z" fill="#000000"/>
<path d="M21.917 0V16H39.4584V11.4682H26.8187V10.0655H35.7898V5.88825H26.8187V4.53179H39.258V0H21.917Z" fill="#000000"/>
</svg>
