<svg width="602" height="205" viewBox="0 0 602 205" fill="none" xmlns="http://www.w3.org/2000/svg">
<g clip-path="url(#clip0_2_1473)">
<path d="M102.348 137.954C87.5306 137.954 73.6906 128.743 68.636 114.085C68.1726 112.737 68.8875 111.267 70.2353 110.801C71.5803 110.333 73.0552 111.05 73.5185 112.401C78.9756 128.216 96.4219 136.607 112.396 131.094C120.038 128.462 126.162 123.018 129.638 115.766C133.11 108.53 133.563 100.308 130.909 92.6216C130.446 91.2739 131.161 89.8044 132.511 89.341C133.854 88.8724 135.329 89.5873 135.795 90.9376C138.893 99.9163 138.358 109.528 134.296 118.001C130.218 126.505 123.038 132.895 114.083 135.979C110.198 137.319 106.237 137.954 102.348 137.954Z" fill="#000000"/>
<path d="M102.345 151.454C99.2075 151.454 96.0461 151.15 92.8952 150.541C80.0322 148.049 68.9327 140.707 61.6433 129.869C60.8463 128.683 61.1614 127.078 62.345 126.284C63.5232 125.49 65.1331 125.802 65.9301 126.986C72.4463 136.677 82.3729 143.238 93.8775 145.47C105.372 147.697 117.056 145.327 126.766 138.798C146.73 125.363 152.018 98.1434 138.554 78.1234C137.757 76.9399 138.072 75.3353 139.253 74.5383C140.434 73.7413 142.041 74.0564 142.838 75.2426C157.893 97.6271 151.978 128.058 129.649 143.082C121.46 148.592 112.01 151.454 102.345 151.454Z" fill="#000000"/>
<path d="M102.279 164.917C87.7746 164.917 73.2012 159.895 61.4106 149.65C60.3303 148.718 60.2164 147.087 61.1537 146.007C62.0858 144.935 63.7221 144.813 64.7971 145.753C88.5981 166.421 124.756 163.909 145.401 140.147C155.42 128.611 160.359 113.86 159.305 98.6035C158.251 83.3442 151.322 69.4301 139.796 59.4188C138.718 58.4841 138.604 56.8531 139.539 55.7754C140.474 54.7004 142.107 54.5813 143.182 55.5212C155.751 66.4381 163.308 81.6099 164.46 98.246C165.609 114.877 160.226 130.959 149.301 143.534C137.021 157.673 119.696 164.915 102.279 164.917Z" fill="#000000"/>
<path d="M102.25 178.403C90.8778 178.403 79.5717 175.811 69.06 170.664C67.7758 170.039 67.2462 168.493 67.8738 167.208C68.5039 165.927 70.0529 165.4 71.3291 166.025C88.2644 174.31 107.421 175.496 125.265 169.364C143.105 163.234 157.496 150.527 165.786 133.582C182.875 98.6466 168.336 56.3084 133.375 39.1983C132.093 38.5735 131.561 37.0245 132.191 35.743C132.819 34.4641 134.368 33.9319 135.644 34.5594C173.166 52.9165 188.767 98.3606 170.425 135.853C161.531 154.036 146.087 167.667 126.941 174.249C118.868 177.024 110.54 178.403 102.25 178.403Z" fill="#000000"/>
<path d="M102.631 191.808C96.9252 191.808 91.1795 191.257 85.4549 190.148C84.0542 189.878 83.1381 188.52 83.4108 187.119C83.6809 185.721 85.0127 184.802 86.4373 185.077C108.472 189.348 130.843 184.794 149.436 172.249C168.032 159.701 180.627 140.661 184.901 118.634C189.174 96.6041 184.617 74.2223 172.064 55.6163C159.511 37.0076 140.465 24.4068 118.438 20.1359C117.04 19.8632 116.124 18.5075 116.397 17.1095C116.667 15.7088 118.007 14.79 119.423 15.0654C142.803 19.5984 163.019 32.9777 176.346 52.7302C189.669 72.4775 194.51 96.2308 189.971 119.616C185.436 142.999 172.067 163.212 152.325 176.53C137.42 186.587 120.226 191.808 102.631 191.808Z" fill="#000000"/>
<path d="M109.37 204.945C108.022 204.945 106.889 203.902 106.796 202.541C106.698 201.119 107.773 199.885 109.195 199.787C135.157 198.005 158.87 186.217 175.965 166.6C193.061 146.982 201.495 121.881 199.71 95.9167C196.03 42.3228 149.447 1.71359 95.8344 5.39931C94.3861 5.50522 93.1787 4.42228 93.0807 2.99512C92.9854 1.57325 94.0604 0.342028 95.4823 0.24406C151.938 -3.63231 200.984 39.1295 204.86 95.5646C206.74 122.906 197.859 149.336 179.857 169.994C161.854 190.652 136.886 203.062 109.545 204.942C109.486 204.942 109.426 204.942 109.367 204.942" fill="#000000"/>
<path d="M71.9912 102.099C71.9912 100.679 70.8394 99.5249 69.4175 99.5249C67.9957 99.5249 66.8439 100.679 66.8439 102.099C66.8439 103.518 67.9957 104.675 69.4175 104.675C70.8394 104.675 71.9912 103.523 71.9912 102.099Z" fill="#000000"/>
<path d="M61.1272 117.837C61.1272 116.415 59.9754 115.26 58.5535 115.26C57.1316 115.26 55.9799 116.415 55.9799 117.837C55.9799 119.258 57.1316 120.41 58.5535 120.41C59.9754 120.41 61.1272 119.258 61.1272 117.837Z" fill="#000000"/>
<path d="M57.1975 138.566C57.1975 137.147 56.0457 135.993 54.6238 135.993C53.202 135.993 52.0502 137.147 52.0502 138.566C52.0502 139.986 53.202 141.143 54.6238 141.143C56.0457 141.143 57.1975 139.988 57.1975 138.566Z" fill="#000000"/>
<path d="M61.9585 161.865C61.9585 160.443 60.8067 159.289 59.3848 159.289C57.9629 159.289 56.8112 160.443 56.8112 161.865C56.8112 163.287 57.9629 164.439 59.3848 164.439C60.8067 164.439 61.9585 163.285 61.9585 161.865Z" fill="#000000"/>
<path d="M75.7928 184.114C75.7928 182.695 74.641 181.541 73.2192 181.541C71.7973 181.541 70.6455 182.695 70.6455 184.114C70.6455 185.533 71.7973 186.69 73.2192 186.69C74.641 186.69 75.7928 185.539 75.7928 184.114Z" fill="#000000"/>
<path d="M98.8686 202.424C98.8686 201.002 97.7168 199.85 96.2949 199.85C94.8731 199.85 93.7186 201.002 93.7186 202.424C93.7186 203.846 94.8731 204.997 96.2949 204.997C97.7168 204.997 98.8686 203.846 98.8686 202.424Z" fill="#000000"/>
<path d="M85.9179 200.776C85.9179 199.355 84.7661 198.2 83.3443 198.2C81.9224 198.2 80.7706 199.355 80.7706 200.776C80.7706 202.198 81.9224 203.35 83.3443 203.35C84.7661 203.35 85.9179 202.196 85.9179 200.776Z" fill="#000000"/>
<path d="M73.2033 197.48C73.2033 196.058 72.0515 194.904 70.6296 194.904C69.2078 194.904 68.0533 196.058 68.0533 197.48C68.0533 198.902 69.2078 200.054 70.6296 200.054C72.0515 200.054 73.2033 198.899 73.2033 197.48Z" fill="#000000"/>
<path d="M61.1323 192.535C61.1323 191.113 59.9805 189.958 58.5586 189.958C57.1368 189.958 55.985 191.113 55.985 192.535C55.985 193.957 57.1368 195.111 58.5586 195.111C59.9805 195.111 61.1323 193.957 61.1323 192.535Z" fill="#000000"/>
<path d="M49.8315 185.999C49.8315 184.577 48.6797 183.423 47.2578 183.423C45.836 183.423 44.6815 184.577 44.6815 185.999C44.6815 187.421 45.836 188.573 47.2578 188.573C48.6797 188.573 49.8315 187.421 49.8315 185.999Z" fill="#000000"/>
<path d="M39.3515 178.109C39.3515 176.69 38.1997 175.535 36.7778 175.535C35.356 175.535 34.2015 176.69 34.2015 178.109C34.2015 179.528 35.356 180.685 36.7778 180.685C38.1997 180.685 39.3515 179.531 39.3515 178.109Z" fill="#000000"/>
<path d="M30.1106 168.927C30.1106 167.507 28.9589 166.353 27.537 166.353C26.1151 166.353 24.9607 167.507 24.9607 168.927C24.9607 170.346 26.1151 171.503 27.537 171.503C28.9589 171.503 30.1106 170.351 30.1106 168.927Z" fill="#000000"/>
<path d="M22.1039 158.568C22.1039 157.147 20.9521 155.992 19.5303 155.992C18.1084 155.992 16.954 157.147 16.954 158.568C16.954 159.99 18.1084 161.142 19.5303 161.142C20.9521 161.142 22.1039 159.988 22.1039 158.568Z" fill="#000000"/>
<path d="M15.511 147.265C15.511 145.84 14.3592 144.688 12.9373 144.688C11.5154 144.688 10.3636 145.84 10.3636 147.265C10.3636 148.689 11.5154 149.838 12.9373 149.838C14.3592 149.838 15.511 148.684 15.511 147.265Z" fill="#000000"/>
<path d="M10.4455 135.254C10.4455 133.832 9.29374 132.678 7.87187 132.678C6.45001 132.678 5.29822 133.832 5.29822 135.254C5.29822 136.676 6.45001 137.83 7.87187 137.83C9.29374 137.83 10.4455 136.676 10.4455 135.254Z" fill="#000000"/>
<path d="M6.97409 122.598C6.97409 121.176 5.8223 120.022 4.40044 120.022C2.97857 120.022 1.82678 121.176 1.82678 122.598C1.82678 124.02 2.97857 125.175 4.40044 125.175C5.8223 125.175 6.97409 124.02 6.97409 122.598Z" fill="#000000"/>
<path d="M5.2081 109.645C5.2081 108.223 4.05631 107.071 2.63444 107.071C1.21258 107.071 0.060791 108.223 0.060791 109.645C0.060791 111.067 1.21258 112.221 2.63444 112.221C4.05631 112.221 5.2081 111.067 5.2081 109.645Z" fill="#000000"/>
<path d="M5.14731 96.5753C5.14731 95.1535 3.99552 93.999 2.57365 93.999C1.15179 93.999 0 95.1535 0 96.5753C0 97.9972 1.15179 99.149 2.57365 99.149C3.99552 99.149 5.14731 97.9945 5.14731 96.5753Z" fill="#000000"/>
<path d="M6.73886 83.6246C6.73886 82.2028 5.58707 81.0483 4.16521 81.0483C2.74334 81.0483 1.59155 82.2028 1.59155 83.6246C1.59155 85.0465 2.74334 86.1983 4.16521 86.1983C5.58707 86.1983 6.73886 85.0439 6.73886 83.6246Z" fill="#000000"/>
<path d="M10.0932 70.9689C10.0932 69.547 8.9414 68.3926 7.51954 68.3926C6.09767 68.3926 4.94324 69.547 4.94324 70.9689C4.94324 72.3907 6.09767 73.5425 7.51954 73.5425C8.9414 73.5425 10.0932 72.3881 10.0932 70.9689Z" fill="#000000"/>
<path d="M15.0397 58.8395C15.0397 57.4176 13.8879 56.2632 12.4634 56.2632C11.0389 56.2632 9.88977 57.4176 9.88977 58.8395C9.88977 60.2613 11.0442 61.4131 12.4634 61.4131C13.8826 61.4131 15.0397 60.2613 15.0397 58.8395Z" fill="#000000"/>
<path d="M21.513 47.4777C21.513 46.0558 20.3612 44.9014 18.9394 44.9014C17.5175 44.9014 16.3657 46.0558 16.3657 47.4777C16.3657 48.8995 17.5175 50.054 18.9394 50.054C20.3612 50.054 21.513 48.8995 21.513 47.4777Z" fill="#000000"/>
<path d="M29.4034 37.0587C29.4034 35.6369 28.2516 34.4824 26.8298 34.4824C25.4079 34.4824 24.2561 35.6369 24.2561 37.0587C24.2561 38.4806 25.4079 39.635 26.8298 39.635C28.2516 39.635 29.4034 38.4779 29.4034 37.0587Z" fill="#000000"/>
<path d="M38.586 27.7533C38.586 26.3341 37.4342 25.1797 36.0124 25.1797C34.5905 25.1797 33.4387 26.3341 33.4387 27.7533C33.4387 29.1726 34.5905 30.3296 36.0124 30.3296C37.4342 30.3296 38.586 29.1779 38.586 27.7533Z" fill="#000000"/>
<path d="M48.889 19.7492C48.889 18.3299 47.7372 17.1729 46.3153 17.1729C44.8935 17.1729 43.739 18.3299 43.739 19.7492C43.739 21.1684 44.8935 22.3255 46.3153 22.3255C47.7372 22.3255 48.889 21.1737 48.889 19.7492Z" fill="#000000"/>
<path d="M60.1925 13.1567C60.1925 11.7374 59.0407 10.583 57.6188 10.583C56.197 10.583 55.0452 11.7374 55.0452 13.1567C55.0452 14.5759 56.197 15.733 57.6188 15.733C59.0407 15.733 60.1925 14.5785 60.1925 13.1567Z" fill="#000000"/>
<path d="M72.2608 8.03361C72.2608 6.6144 71.109 5.45996 69.6871 5.45996C68.2653 5.45996 67.1108 6.6144 67.1108 8.03361C67.1108 9.45283 68.2653 10.6099 69.6871 10.6099C71.109 10.6099 72.2608 9.45813 72.2608 8.03361Z" fill="#000000"/>
<path d="M84.859 4.62053C84.859 3.19866 83.7072 2.04688 82.2853 2.04688C80.8635 2.04688 79.7117 3.19866 79.7117 4.62053C79.7117 6.04239 80.8635 7.19683 82.2853 7.19683C83.7072 7.19683 84.859 6.04239 84.859 4.62053Z" fill="#000000"/>
<path d="M63.9598 178.874C63.9598 177.455 62.808 176.301 61.3862 176.301C59.9643 176.301 58.8125 177.455 58.8125 178.874C58.8125 180.294 59.9643 181.451 61.3862 181.451C62.808 181.451 63.9598 180.296 63.9598 178.874Z" fill="#000000"/>
<path d="M53.0694 171.926C53.0694 170.507 51.9176 169.355 50.4957 169.355C49.0739 169.355 47.9194 170.507 47.9194 171.926C47.9194 173.346 49.0739 174.503 50.4957 174.503C51.9176 174.503 53.0694 173.351 53.0694 171.926Z" fill="#000000"/>
<path d="M43.3548 163.395C43.3548 161.97 42.203 160.818 40.7811 160.818C39.3593 160.818 38.2048 161.97 38.2048 163.395C38.2048 164.819 39.3593 165.968 40.7811 165.968C42.203 165.968 43.3548 164.814 43.3548 163.395Z" fill="#000000"/>
<path d="M34.9377 153.561C34.9377 152.139 33.7859 150.987 32.364 150.987C30.9422 150.987 29.7877 152.139 29.7877 153.561C29.7877 154.983 30.9422 156.137 32.364 156.137C33.7859 156.137 34.9377 154.983 34.9377 153.561Z" fill="#000000"/>
<path d="M28.1674 142.555C28.1674 141.133 27.0157 139.979 25.5938 139.979C24.1719 139.979 23.0201 141.133 23.0201 142.555C23.0201 143.977 24.1719 145.128 25.5938 145.128C27.0157 145.128 28.1674 143.977 28.1674 142.555Z" fill="#000000"/>
<path d="M23.0439 130.661C23.0439 129.239 21.8921 128.084 20.4702 128.084C19.0484 128.084 17.8939 129.239 17.8939 130.661C17.8939 132.083 19.0484 133.234 20.4702 133.234C21.8921 133.234 23.0439 132.083 23.0439 130.661Z" fill="#000000"/>
<path d="M19.7471 118.182C19.7471 116.76 18.5953 115.605 17.1735 115.605C15.7516 115.605 14.5972 116.76 14.5972 118.182C14.5972 119.604 15.7516 120.758 17.1735 120.758C18.5953 120.758 19.7471 119.604 19.7471 118.182Z" fill="#000000"/>
<path d="M18.394 105.228C18.394 103.807 17.2422 102.655 15.8204 102.655C14.3985 102.655 13.2467 103.807 13.2467 105.228C13.2467 106.65 14.3985 107.805 15.8204 107.805C17.2422 107.805 18.394 106.65 18.394 105.228Z" fill="#000000"/>
<path d="M19.0431 92.3942C19.0431 90.9723 17.8914 89.8179 16.4695 89.8179C15.0476 89.8179 13.8932 90.9723 13.8932 92.3942C13.8932 93.816 15.0476 94.9705 16.4695 94.9705C17.8914 94.9705 19.0431 93.816 19.0431 92.3942Z" fill="#000000"/>
<path d="M21.513 79.6827C21.513 78.2609 20.3612 77.1064 18.9394 77.1064C17.5175 77.1064 16.3657 78.2609 16.3657 79.6827C16.3657 81.1046 17.5175 82.2564 18.9394 82.2564C20.3612 82.2564 21.513 81.102 21.513 79.6827Z" fill="#000000"/>
<path d="M25.8105 67.4952C25.8105 66.0707 24.6587 64.9189 23.2369 64.9189C21.815 64.9189 20.6632 66.0707 20.6632 67.4952C20.6632 68.9198 21.815 70.0689 23.2369 70.0689C24.6587 70.0689 25.8105 68.9145 25.8105 67.4952Z" fill="#000000"/>
<path d="M31.9349 56.0141C31.9349 54.5922 30.7831 53.4404 29.3613 53.4404C27.9394 53.4404 26.7876 54.5922 26.7876 56.0141C26.7876 57.4359 27.9394 58.5877 29.3613 58.5877C30.7831 58.5877 31.9349 57.4359 31.9349 56.0141Z" fill="#000000"/>
<path d="M39.7063 45.7084C39.7063 44.2892 38.5545 43.1348 37.1326 43.1348C35.7107 43.1348 34.559 44.2892 34.559 45.7084C34.559 47.1276 35.7107 48.2847 37.1326 48.2847C38.5545 48.2847 39.7063 47.1329 39.7063 45.7084Z" fill="#000000"/>
<path d="M48.9471 36.6459C48.9471 35.2267 47.7953 34.0723 46.3735 34.0723C44.9516 34.0723 43.7998 35.2267 43.7998 36.6459C43.7998 38.0651 44.9516 39.2222 46.3735 39.2222C47.7953 39.2222 48.9471 38.0704 48.9471 36.6459Z" fill="#000000"/>
<path d="M59.369 28.9906C59.369 27.5714 58.2172 26.417 56.7953 26.417C55.3734 26.417 54.219 27.5714 54.219 28.9906C54.219 30.4099 55.3734 31.5669 56.7953 31.5669C58.2172 31.5669 59.369 30.4152 59.369 28.9906Z" fill="#000000"/>
<path d="M70.847 23.0463C70.847 21.6244 69.6952 20.4727 68.2733 20.4727C66.8515 20.4727 65.697 21.6244 65.697 23.0463C65.697 24.4682 66.8515 25.6226 68.2733 25.6226C69.6952 25.6226 70.847 24.4682 70.847 23.0463Z" fill="#000000"/>
<path d="M83.0931 18.8068C83.0931 17.3849 81.9413 16.2305 80.5194 16.2305C79.0976 16.2305 77.9431 17.3849 77.9431 18.8068C77.9431 20.2286 79.0976 21.3831 80.5194 21.3831C81.9413 21.3831 83.0931 20.2286 83.0931 18.8068Z" fill="#000000"/>
<path d="M95.8077 16.4535C95.8077 15.0343 94.6559 13.8799 93.2341 13.8799C91.8122 13.8799 90.6604 15.0343 90.6604 16.4535C90.6604 17.8728 91.8122 19.0298 93.2341 19.0298C94.6559 19.0298 95.8077 17.878 95.8077 16.4535Z" fill="#000000"/>
<path d="M108.761 16.1007C108.761 14.6789 107.609 13.5244 106.187 13.5244C104.765 13.5244 103.614 14.6789 103.614 16.1007C103.614 17.5226 104.765 18.677 106.187 18.677C107.609 18.677 108.761 17.5199 108.761 16.1007Z" fill="#000000"/>
<path d="M52.3466 153.49C52.3466 152.065 51.1949 150.914 49.773 150.914C48.3511 150.914 47.1993 152.065 47.1993 153.49C47.1993 154.914 48.3511 156.064 49.773 156.064C51.1949 156.064 52.3466 154.909 52.3466 153.49Z" fill="#000000"/>
<path d="M44.2921 143.556C44.2921 142.136 43.1403 140.982 41.7184 140.982C40.2966 140.982 39.1448 142.136 39.1448 143.556C39.1448 144.975 40.2966 146.132 41.7184 146.132C43.1403 146.132 44.2921 144.977 44.2921 143.556Z" fill="#000000"/>
<path d="M38.1574 132.389C38.1574 130.967 37.0057 129.813 35.5838 129.813C34.1619 129.813 33.0101 130.967 33.0101 132.389C33.0101 133.811 34.1619 134.966 35.5838 134.966C37.0057 134.966 38.1574 133.811 38.1574 132.389Z" fill="#000000"/>
<path d="M33.9951 120.35C33.9951 118.931 32.8433 117.776 31.4214 117.776C29.9996 117.776 28.8478 118.931 28.8478 120.35C28.8478 121.769 29.9996 122.926 31.4214 122.926C32.8433 122.926 33.9951 121.775 33.9951 120.35Z" fill="#000000"/>
<path d="M31.9801 107.72C31.9801 106.295 30.8283 105.144 29.4064 105.144C27.9846 105.144 26.8328 106.295 26.8328 107.72C26.8328 109.144 27.9846 110.294 29.4064 110.294C30.8283 110.294 31.9801 109.139 31.9801 107.72Z" fill="#000000"/>
<path d="M32.2103 94.9967C32.2103 93.5748 31.0585 92.4204 29.6366 92.4204C28.2147 92.4204 27.0603 93.5748 27.0603 94.9967C27.0603 96.4186 28.2147 97.573 29.6366 97.573C31.0585 97.573 32.2103 96.4186 32.2103 94.9967Z" fill="#000000"/>
<path d="M34.6357 82.5026C34.6357 81.0807 33.4839 79.9263 32.062 79.9263C30.6402 79.9263 29.4857 81.0807 29.4857 82.5026C29.4857 83.9244 30.6402 85.0762 32.062 85.0762C33.4839 85.0762 34.6357 83.9218 34.6357 82.5026Z" fill="#000000"/>
<path d="M39.2112 70.5553C39.2112 69.1334 38.0594 67.979 36.6376 67.979C35.2157 67.979 34.0613 69.1334 34.0613 70.5553C34.0613 71.9772 35.2157 73.1316 36.6376 73.1316C38.0594 73.1316 39.2112 71.9772 39.2112 70.5553Z" fill="#000000"/>
<path d="M45.7563 59.6178C45.7563 58.1959 44.6045 57.0415 43.1826 57.0415C41.7608 57.0415 40.6063 58.1959 40.6063 59.6178C40.6063 61.0397 41.7608 62.1915 43.1826 62.1915C44.6045 62.1915 45.7563 61.0397 45.7563 59.6178Z" fill="#000000"/>
<path d="M54.1314 50.0089C54.1314 48.5871 52.9796 47.4326 51.5578 47.4326C50.1359 47.4326 48.9841 48.5871 48.9841 50.0089C48.9841 51.4308 50.1359 52.5852 51.5578 52.5852C52.9796 52.5852 54.1314 51.4308 54.1314 50.0089Z" fill="#000000"/>
<path d="M64.018 41.9542C64.018 40.5324 62.8662 39.3779 61.4444 39.3779C60.0225 39.3779 58.8707 40.5324 58.8707 41.9542C58.8707 43.3761 60.0225 44.5279 61.4444 44.5279C62.8662 44.5279 64.018 43.3734 64.018 41.9542Z" fill="#000000"/>
<path d="M75.1839 35.7748C75.1839 34.353 74.0321 33.2012 72.6103 33.2012C71.1884 33.2012 70.0366 34.353 70.0366 35.7748C70.0366 37.1967 71.1884 38.3511 72.6103 38.3511C74.0321 38.3511 75.1839 37.1967 75.1839 35.7748Z" fill="#000000"/>
<path d="M87.2211 31.6544C87.2211 30.2326 86.0693 29.0781 84.6475 29.0781C83.2256 29.0781 82.0712 30.2326 82.0712 31.6544C82.0712 33.0763 83.2256 34.2307 84.6475 34.2307C86.0693 34.2307 87.2211 33.0736 87.2211 31.6544Z" fill="#000000"/>
<path d="M99.8084 29.5975C99.8084 28.1756 98.6567 27.0186 97.2348 27.0186C95.8129 27.0186 94.6611 28.1756 94.6611 29.5975C94.6611 31.0194 95.8129 32.1712 97.2348 32.1712C98.6567 32.1712 99.8084 31.0194 99.8084 29.5975Z" fill="#000000"/>
<path d="M112.531 29.8217C112.531 28.3998 111.379 27.248 109.957 27.248C108.535 27.248 107.384 28.3998 107.384 29.8217C107.384 31.2436 108.535 32.398 109.957 32.398C111.379 32.398 112.531 31.2436 112.531 29.8217Z" fill="#000000"/>
<path d="M125.071 32.2472C125.071 30.828 123.919 29.6709 122.497 29.6709C121.076 29.6709 119.921 30.828 119.921 32.2472C119.921 33.6664 121.076 34.8235 122.497 34.8235C123.919 34.8235 125.071 33.6691 125.071 32.2472Z" fill="#000000"/>
<path d="M50.7474 127.862C50.7474 126.443 49.5956 125.288 48.1738 125.288C46.7519 125.288 45.6001 126.443 45.6001 127.862C45.6001 129.281 46.7519 130.438 48.1738 130.438C49.5956 130.438 50.7474 129.284 50.7474 127.862Z" fill="#000000"/>
<path d="M46.715 116.05C46.715 114.628 45.5632 113.474 44.1414 113.474C42.7195 113.474 41.5651 114.628 41.5651 116.05C41.5651 117.472 42.7195 118.626 44.1414 118.626C45.5632 118.626 46.715 117.472 46.715 116.05Z" fill="#000000"/>
<path d="M45.2081 103.637C45.2081 102.215 44.0563 101.061 42.6344 101.061C41.2126 101.061 40.0608 102.215 40.0608 103.637C40.0608 105.059 41.2126 106.211 42.6344 106.211C44.0563 106.211 45.2081 105.059 45.2081 103.637Z" fill="#000000"/>
<path d="M46.2941 91.2035C46.2941 89.7843 45.1423 88.6299 43.7205 88.6299C42.2986 88.6299 41.1442 89.7843 41.1442 91.2035C41.1442 92.6228 42.2986 93.7798 43.7205 93.7798C45.1423 93.7798 46.2941 92.6254 46.2941 91.2035Z" fill="#000000"/>
<path d="M49.9504 79.2589C49.9504 77.8371 48.7986 76.6826 47.3767 76.6826C45.9549 76.6826 44.8004 77.8371 44.8004 79.2589C44.8004 80.6808 45.9549 81.8326 47.3767 81.8326C48.7986 81.8326 49.9504 80.6781 49.9504 79.2589Z" fill="#000000"/>
<path d="M56.0455 68.3769C56.0455 66.955 54.8937 65.8032 53.4718 65.8032C52.05 65.8032 50.8982 66.955 50.8982 68.3769C50.8982 69.7987 52.05 70.9532 53.4718 70.9532C54.8937 70.9532 56.0455 69.7987 56.0455 68.3769Z" fill="#000000"/>
<path d="M64.2669 58.9376C64.2669 57.5158 63.1151 56.3613 61.6933 56.3613C60.2714 56.3613 59.1196 57.5158 59.1196 58.9376C59.1196 60.3595 60.2714 61.5139 61.6933 61.5139C63.1151 61.5139 64.2669 60.3595 64.2669 58.9376Z" fill="#000000"/>
<path d="M74.2414 51.444C74.2414 50.0221 73.0896 48.8677 71.6677 48.8677C70.2459 48.8677 69.0914 50.0221 69.0914 51.444C69.0914 52.8658 70.2459 54.0203 71.6677 54.0203C73.0896 54.0203 74.2414 52.8658 74.2414 51.444Z" fill="#000000"/>
<path d="M85.5663 46.1935C85.5663 44.7716 84.4145 43.6172 82.9926 43.6172C81.5707 43.6172 80.4189 44.7716 80.4189 46.1935C80.4189 47.6154 81.5707 48.7671 82.9926 48.7671C84.4145 48.7671 85.5663 47.6127 85.5663 46.1935Z" fill="#000000"/>
<path d="M97.7353 43.3995C97.7353 41.975 96.5835 40.8232 95.1617 40.8232C93.7398 40.8232 92.588 41.975 92.588 43.3995C92.588 44.8241 93.7398 45.9732 95.1617 45.9732C96.5835 45.9732 97.7353 44.8188 97.7353 43.3995Z" fill="#000000"/>
<path d="M110.233 43.1779C110.233 41.756 109.081 40.6016 107.659 40.6016C106.237 40.6016 105.083 41.756 105.083 43.1779C105.083 44.5997 106.237 45.7515 107.659 45.7515C109.081 45.7515 110.233 44.5971 110.233 43.1779Z" fill="#000000"/>
<path d="M122.513 45.5499C122.513 44.1281 121.361 42.9736 119.94 42.9736C118.518 42.9736 117.363 44.1281 117.363 45.5499C117.363 46.9718 118.518 48.1236 119.94 48.1236C121.361 48.1236 122.513 46.9692 122.513 45.5499Z" fill="#000000"/>
<path d="M133.991 50.4484C133.991 49.0265 132.839 47.8721 131.418 47.8721C129.996 47.8721 128.844 49.0265 128.844 50.4484C128.844 51.8702 129.996 53.0247 131.418 53.0247C132.839 53.0247 133.991 51.8702 133.991 50.4484Z" fill="#000000"/>
<path d="M58.7335 105.981C58.7335 104.557 57.5817 103.405 56.1598 103.405C54.7379 103.405 53.5835 104.557 53.5835 105.981C53.5835 107.406 54.7379 108.555 56.1598 108.555C57.5817 108.555 58.7335 107.4 58.7335 105.981Z" fill="#000000"/>
<path d="M59.4878 93.9198C59.4878 92.5006 58.336 91.3462 56.9141 91.3462C55.4922 91.3462 54.3405 92.5006 54.3405 93.9198C54.3405 95.3391 55.4922 96.4961 56.9141 96.4961C58.336 96.4961 59.4878 95.3444 59.4878 93.9198Z" fill="#000000"/>
<path d="M63.3218 82.4623C63.3218 81.0431 62.17 79.8887 60.7482 79.8887C59.3263 79.8887 58.1719 81.0431 58.1719 82.4623C58.1719 83.8815 59.3263 85.0386 60.7482 85.0386C62.17 85.0386 63.3218 83.8868 63.3218 82.4623Z" fill="#000000"/>
<path d="M69.9704 72.359C69.9704 70.9372 68.8186 69.7827 67.3967 69.7827C65.9749 69.7827 64.8204 70.9372 64.8204 72.359C64.8204 73.7809 65.9749 74.9353 67.3967 74.9353C68.8186 74.9353 69.9704 73.7809 69.9704 72.359Z" fill="#000000"/>
<path d="M79.034 64.3363C79.034 62.9145 77.8822 61.7627 76.4604 61.7627C75.0385 61.7627 73.8867 62.9145 73.8867 64.3363C73.8867 65.7582 75.0385 66.91 76.4604 66.91C77.8822 66.91 79.034 65.7582 79.034 64.3363Z" fill="#000000"/>
<path d="M89.8501 58.8818C89.8501 57.4625 88.6984 56.3081 87.2765 56.3081C85.8546 56.3081 84.7002 57.4625 84.7002 58.8818C84.7002 60.301 85.8546 61.4581 87.2765 61.4581C88.6984 61.4581 89.8501 60.3063 89.8501 58.8818Z" fill="#000000"/>
<path d="M101.686 56.4464C101.686 55.0246 100.534 53.8701 99.1121 53.8701C97.6902 53.8701 96.5385 55.0246 96.5385 56.4464C96.5385 57.8683 97.6902 59.0201 99.1121 59.0201C100.534 59.0201 101.686 57.8683 101.686 56.4464Z" fill="#000000"/>
<path d="M113.765 57.1972C113.765 55.7753 112.613 54.6235 111.191 54.6235C109.769 54.6235 108.618 55.7753 108.618 57.1972C108.618 58.6191 109.769 59.7708 111.191 59.7708C112.613 59.7708 113.765 58.6191 113.765 57.1972Z" fill="#000000"/>
<path d="M125.201 61.0527C125.201 59.6334 124.049 58.479 122.627 58.479C121.206 58.479 120.051 59.6334 120.051 61.0527C120.051 62.4719 121.206 63.629 122.627 63.629C124.049 63.629 125.201 62.4772 125.201 61.0527Z" fill="#000000"/>
<path d="M135.307 67.7047C135.307 66.2829 134.156 65.1284 132.734 65.1284C131.312 65.1284 130.16 66.2829 130.16 67.7047C130.16 69.1266 131.312 70.2784 132.734 70.2784C134.156 70.2784 135.307 69.1266 135.307 67.7047Z" fill="#000000"/>
<path d="M74.2945 90.9306C74.2945 89.5114 73.1427 88.3569 71.7208 88.3569C70.299 88.3569 69.1445 89.5114 69.1445 90.9306C69.1445 92.3498 70.299 93.5069 71.7208 93.5069C73.1427 93.5069 74.2945 92.3525 74.2945 90.9306Z" fill="#000000"/>
<path d="M80.2125 81.1578C80.2125 79.7333 79.0607 78.5815 77.6388 78.5815C76.217 78.5815 75.0652 79.7333 75.0652 81.1578C75.0652 82.5824 76.217 83.7315 77.6388 83.7315C79.0607 83.7315 80.2125 82.5771 80.2125 81.1578Z" fill="#000000"/>
<path d="M89.101 73.9762C89.101 72.5543 87.9492 71.3999 86.5274 71.3999C85.1055 71.3999 83.951 72.5543 83.951 73.9762C83.951 75.3981 85.1055 76.5499 86.5274 76.5499C87.9492 76.5499 89.101 75.3981 89.101 73.9762Z" fill="#000000"/>
<path d="M99.8932 70.206C99.8932 68.7868 98.7415 67.6323 97.3196 67.6323C95.8977 67.6323 94.7433 68.7868 94.7433 70.206C94.7433 71.6252 95.8977 72.7823 97.3196 72.7823C98.7415 72.7823 99.8932 71.6305 99.8932 70.206Z" fill="#000000"/>
<path d="M111.295 70.3859C111.295 68.9667 110.143 67.8096 108.721 67.8096C107.299 67.8096 106.148 68.9667 106.148 70.3859C106.148 71.8051 107.299 72.9622 108.721 72.9622C110.143 72.9622 111.295 71.8077 111.295 70.3859Z" fill="#000000"/>
<path d="M121.949 74.5409C121.949 73.1217 120.798 71.9673 119.376 71.9673C117.954 71.9673 116.802 73.1217 116.802 74.5409C116.802 75.9602 117.954 77.1172 119.376 77.1172C120.798 77.1172 121.949 75.9628 121.949 74.5409Z" fill="#000000"/>
<path d="M130.528 82.0761C130.528 80.6569 129.377 79.5024 127.955 79.5024C126.533 79.5024 125.381 80.6569 125.381 82.0761C125.381 83.4953 126.533 84.6524 127.955 84.6524C129.377 84.6524 130.528 83.5006 130.528 82.0761Z" fill="#000000"/>
<path d="M586.984 163.395C588.914 162.211 590.434 160.575 591.541 158.488C592.647 156.404 593.201 154.048 593.201 151.421C593.201 148.795 592.647 146.451 591.541 144.391C590.434 142.334 588.914 140.711 586.984 139.525C585.054 138.341 582.877 137.748 580.457 137.748C578.037 137.748 575.86 138.341 573.93 139.525C571.997 140.711 570.48 142.334 569.373 144.391C568.264 146.451 567.711 148.795 567.711 151.421C567.711 154.048 568.253 156.404 569.334 158.488C570.414 160.575 571.921 162.211 573.853 163.395C575.784 164.581 577.984 165.171 580.457 165.171C582.877 165.171 585.054 164.581 586.984 163.395ZM568.831 170.385C565.664 168.455 563.167 165.841 561.34 162.545C559.51 159.251 558.597 155.541 558.597 151.421C558.597 147.301 559.51 143.594 561.34 140.298C563.167 137.004 565.664 134.401 568.831 132.497C571.997 130.591 575.564 129.638 579.53 129.638C582.414 129.638 585.027 130.154 587.37 131.184C589.714 132.214 591.657 133.631 593.201 135.431V113.881H601.854V172.355H593.587V166.948C592.044 169.008 590.047 170.578 587.601 171.658C585.154 172.741 582.49 173.281 579.607 173.281C575.59 173.281 571.997 172.315 568.831 170.385ZM525.576 139.604C523.463 141.354 522.15 143.827 521.636 147.018H543.65C543.496 144.034 542.414 141.611 540.406 139.758C538.397 137.904 535.926 136.978 532.99 136.978C530.157 136.978 527.686 137.854 525.576 139.604ZM522.64 170.385C519.447 168.455 516.936 165.828 515.109 162.505C513.28 159.185 512.366 155.464 512.366 151.344C512.366 147.174 513.267 143.454 515.07 140.181C516.873 136.914 519.33 134.338 522.447 132.458C525.563 130.578 529.077 129.638 532.99 129.638C537.213 129.638 540.804 130.578 543.767 132.458C546.727 134.338 548.991 136.811 550.563 139.874C552.134 142.938 552.92 146.274 552.92 149.878C552.92 150.547 552.893 151.241 552.843 151.961C552.79 152.684 552.687 153.352 552.533 153.971H521.48C521.737 157.524 523.026 160.344 525.343 162.428C527.66 164.515 530.467 165.558 533.763 165.558C536.287 165.558 538.437 164.978 540.213 163.818C541.99 162.661 543.391 161.205 544.423 159.455L551.53 162.931C550.24 165.918 548.014 168.391 544.847 170.345C541.68 172.304 537.96 173.281 533.686 173.281C529.513 173.281 525.833 172.315 522.64 170.385ZM492.1 169.111C489.68 166.638 488.47 163.162 488.47 158.682V138.444H481.133V130.565H482.29C484.247 130.565 485.767 130.001 486.85 128.867C487.93 127.734 488.47 126.19 488.47 124.231V120.988H497.2V130.565H506.7V138.444H497.2V158.295C497.2 160.408 497.727 162.068 498.783 163.278C499.837 164.488 501.627 165.094 504.15 165.094C505.08 165.094 506.03 165.018 507.01 164.861V172.355C506.34 172.458 505.567 172.559 504.693 172.664C503.817 172.765 503.017 172.818 502.297 172.818C497.92 172.818 494.52 171.582 492.1 169.111ZM464.526 130.565H473.256V172.355H464.526V130.565ZM464.526 114.808H473.256V124.848H464.526V114.808ZM392.766 130.565H401.109V135.741C402.242 133.731 403.839 132.214 405.899 131.184C407.956 130.154 410.249 129.638 412.772 129.638C415.605 129.638 418.179 130.284 420.499 131.571C422.815 132.858 424.592 134.581 425.826 136.745C427.219 134.377 429.046 132.601 431.312 131.415C433.576 130.231 436.099 129.638 438.882 129.638C441.816 129.638 444.456 130.308 446.799 131.648C449.142 132.987 450.996 134.828 452.359 137.171C453.723 139.514 454.406 142.231 454.406 145.318V172.355H445.679V147.714C445.679 144.624 444.869 142.191 443.246 140.414C441.623 138.638 439.499 137.748 436.873 137.748C434.246 137.748 432.096 138.638 430.423 140.414C428.749 142.191 427.912 144.624 427.912 147.714V172.355H419.262V147.714C419.262 144.624 418.436 142.191 416.789 140.414C415.142 138.638 413.005 137.748 410.379 137.748C407.752 137.748 405.615 138.638 403.966 140.414C402.319 142.191 401.495 144.624 401.495 147.714V172.355H392.766V130.565ZM373.069 130.565H381.798V172.355H373.069V130.565ZM373.069 114.808H381.798V124.848H373.069V114.808ZM353.372 113.881H362.102V172.355H353.372V113.881ZM307.335 130.565H315.678V135.664C316.861 133.708 318.484 132.214 320.544 131.184C322.604 130.154 324.921 129.638 327.498 129.638C330.535 129.638 333.238 130.308 335.608 131.648C337.975 132.987 339.842 134.828 341.208 137.171C342.571 139.514 343.255 142.231 343.255 145.318V172.355H334.604V147.714C334.604 144.624 333.741 142.191 332.015 140.414C330.288 138.638 328.062 137.748 325.334 137.748C322.655 137.748 320.441 138.638 318.691 140.414C316.938 142.191 316.064 144.624 316.064 147.714V172.355H307.335V130.565ZM262.574 170.578C259.253 168.775 256.651 166.305 254.773 163.162C252.891 160.021 251.953 156.441 251.953 152.425V114.808H261.067V152.038C261.067 154.564 261.62 156.791 262.727 158.721C263.834 160.651 265.354 162.171 267.287 163.278C269.217 164.388 271.444 164.938 273.967 164.938C276.541 164.938 278.794 164.388 280.727 163.278C282.657 162.171 284.174 160.651 285.284 158.721C286.391 156.791 286.944 154.564 286.944 152.038V114.808H295.981V152.425C295.981 156.441 295.054 160.021 293.201 163.162C291.347 166.305 288.76 168.775 285.437 170.578C282.117 172.381 278.294 173.281 273.967 173.281C269.691 173.281 265.894 172.381 262.574 170.578Z" fill="#000000"/>
<path d="M479.356 48.4015H487.697V53.7315C488.78 51.6715 490.271 50.1782 492.177 49.2515C494.083 48.3247 496.297 47.8614 498.82 47.8614H501.37V55.818H497.74C494.854 55.818 492.527 56.705 490.75 58.4817C488.973 60.2583 488.084 62.7949 488.084 66.0914V90.1916H479.356V48.4015ZM444.286 57.4384C442.176 59.1913 440.863 61.6617 440.346 64.8549H462.363C462.207 61.8682 461.126 59.4481 459.117 57.5946C457.11 55.7412 454.637 54.8118 451.703 54.8118C448.87 54.8118 446.399 55.6882 444.286 57.4384ZM441.353 88.2217C438.159 86.2888 435.647 83.6648 433.82 80.3418C431.993 77.0215 431.079 73.3013 431.079 69.1814C431.079 65.0085 431.979 61.2883 433.783 58.0183C435.583 54.7483 438.043 52.1746 441.159 50.2947C444.273 48.4148 447.789 47.4748 451.703 47.4748C455.923 47.4748 459.516 48.4148 462.479 50.2947C465.44 52.1746 467.703 54.6477 469.276 57.7085C470.846 60.7746 471.633 64.1082 471.633 67.7119C471.633 68.3818 471.604 69.0781 471.553 69.7983C471.503 70.5212 471.4 71.1884 471.246 71.808H440.193C440.45 75.3587 441.739 78.1786 444.056 80.265C446.373 82.3515 449.18 83.3921 452.476 83.3921C454.997 83.3921 457.149 82.8149 458.926 81.6551C460.703 80.4981 462.103 79.0418 463.133 77.2916L470.24 80.7681C468.953 83.7548 466.726 86.2252 463.56 88.1819C460.393 90.1413 456.673 91.1183 452.397 91.1183C448.226 91.1183 444.543 90.1519 441.353 88.2217ZM409.836 81.2315C411.74 80.0453 413.246 78.4116 414.356 76.3251C415.463 74.2387 416.016 71.8848 416.016 69.2582C416.016 66.6316 415.463 64.2883 414.356 62.2283C413.246 60.1683 411.74 58.5478 409.836 57.3616C407.93 56.1781 405.742 55.585 403.269 55.585C400.849 55.585 398.676 56.1781 396.743 57.3616C394.812 58.5478 393.293 60.1683 392.186 62.2283C391.079 64.2883 390.526 66.6316 390.526 69.2582C390.526 71.8848 391.079 74.2387 392.186 76.3251C393.293 78.4116 394.812 80.0453 396.743 81.2315C398.676 82.4151 400.849 83.0082 403.269 83.0082C405.742 83.0082 407.93 82.4151 409.836 81.2315ZM396.126 89.4952C393.679 88.4149 391.685 86.8686 390.139 84.8616V90.1916H381.796V31.7178H390.526V53.1914C392.069 51.3882 394.002 49.9849 396.319 48.9814C398.636 47.9779 401.236 47.4748 404.119 47.4748C408.086 47.4748 411.652 48.428 414.819 50.3318C417.986 52.2382 420.483 54.8409 422.312 58.1348C424.139 61.4313 425.053 65.1382 425.053 69.2582C425.053 73.3781 424.139 77.085 422.312 80.3815C420.483 83.678 417.996 86.2888 414.856 88.2217C411.716 90.1519 408.136 91.1183 404.119 91.1183C401.236 91.1183 398.57 90.5782 396.126 89.4952ZM311.582 48.4015H319.925V53.5779C321.058 51.5683 322.655 50.0511 324.715 49.0211C326.772 47.9911 329.065 47.4748 331.588 47.4748C334.422 47.4748 336.995 48.1182 339.315 49.405C341.631 50.6945 343.408 52.4182 344.642 54.5815C346.035 52.2143 347.862 50.4377 350.128 49.2515C352.392 48.0679 354.915 47.4748 357.698 47.4748C360.632 47.4748 363.272 48.1447 365.615 49.4845C367.958 50.8242 369.812 52.6645 371.176 55.0051C372.539 57.351 373.222 60.065 373.222 63.155V90.1916H364.495V65.5513C364.495 62.4613 363.685 60.028 362.062 58.2513C360.439 56.4746 358.315 55.585 355.689 55.585C353.062 55.585 350.912 56.4746 349.239 58.2513C347.565 60.028 346.728 62.4613 346.728 65.5513V90.1916H338.078V65.5513C338.078 62.4613 337.252 60.028 335.605 58.2513C333.958 56.4746 331.821 55.585 329.195 55.585C326.568 55.585 324.431 56.4746 322.785 58.2513C321.135 60.028 320.311 62.4613 320.311 65.5513V90.1916H311.582V48.4015ZM293.431 48.4015H302.161V90.1916H293.431V48.4015ZM293.431 32.6445H302.161V42.6849H293.431V32.6445ZM262.611 40.7547H247.317V32.6445H286.711V40.7547H271.648V90.1916H262.611V40.7547Z" fill="#000000"/>
</g>
<defs>
<clipPath id="clip0_2_1473">
<rect width="601.854" height="205" fill="white"/>
</clipPath>
</defs>
</svg>
