<svg id="Layer_1" data-name="Layer 1" xmlns="http://www.w3.org/2000/svg" viewBox="0 0 150 77.42"><defs><style>.cls-1{fill:none;stroke:#231f20;stroke-width:0.86px;}</style></defs><path class="cls-1" d="M34.22,50.15" transform="translate(-5.28 -4.81)"/><path d="M48.6,74.15l-9.16,8.08H5.28V4.81H39.44l9.16,8.13V36.75l-5.52,6.7L48.6,50.3Zm-29-37.8H34.26V19.1H19.58Zm0,31.59H34.26V50.69H19.58Z" transform="translate(-5.28 -4.81)"/><path d="M129.05,4.81l-13,77.42H101.5L94.8,48.77,88.05,82.23H73.46L60.55,4.81H75.18l5.87,39.57L88.88,4.81h11.83l7.79,39.62,5.86-39.62Z" transform="translate(-5.28 -4.81)"/><path d="M141,82.23V67.94h14.29V82.23Z" transform="translate(-5.28 -4.81)"/></svg>